<mxfile host="65bd71144e" pages="4">
    <diagram id="tHwDTx18vOP15Z2TD4TF" name="BDATS_DATA">
        <mxGraphModel dx="494" dy="464" grid="1" gridSize="10" guides="1" tooltips="1" connect="1" arrows="1" fold="1" page="1" pageScale="1" pageWidth="827" pageHeight="1169" math="0" shadow="0">
            <root>
                <mxCell id="0"/>
                <mxCell id="1" parent="0"/>
                <mxCell id="QbiiDBdozPDa6CCJ6g8p-5" value="" style="rounded=1;whiteSpace=wrap;html=1;strokeWidth=2;" parent="1" vertex="1">
                    <mxGeometry x="42" y="470" width="1580" height="170" as="geometry"/>
                </mxCell>
                <mxCell id="QbiiDBdozPDa6CCJ6g8p-3" value="" style="rounded=1;whiteSpace=wrap;html=1;strokeWidth=2;" parent="1" vertex="1">
                    <mxGeometry x="42" y="280" width="1580" height="170" as="geometry"/>
                </mxCell>
                <mxCell id="QbiiDBdozPDa6CCJ6g8p-1" value="" style="rounded=1;whiteSpace=wrap;html=1;strokeWidth=2;" parent="1" vertex="1">
                    <mxGeometry x="42" y="90" width="1580" height="170" as="geometry"/>
                </mxCell>
                <mxCell id="cJYal3AX8oCGFZ8Ep0ey-1" value="&lt;font&gt;&lt;span style=&quot;font-size: 16px&quot;&gt;COM411&lt;br&gt;Problem Solving through Programming)&lt;/span&gt;&lt;/font&gt;" style="rounded=1;whiteSpace=wrap;html=1;fillColor=#dae8fc;strokeColor=#6c8ebf;strokeWidth=2;" parent="1" vertex="1">
                    <mxGeometry x="202" y="160" width="210" height="80" as="geometry"/>
                </mxCell>
                <mxCell id="cJYal3AX8oCGFZ8Ep0ey-2" value="&lt;span style=&quot;font-size: 16px&quot;&gt;COM412&lt;br&gt;Introduction to Networks&lt;br&gt;&amp;amp; Security&lt;/span&gt;" style="rounded=1;whiteSpace=wrap;html=1;fillColor=#dae8fc;strokeColor=#6c8ebf;strokeWidth=2;" parent="1" vertex="1">
                    <mxGeometry x="432" y="160" width="210" height="80" as="geometry"/>
                </mxCell>
                <mxCell id="cJYal3AX8oCGFZ8Ep0ey-4" value="&lt;font style=&quot;font-size: 17px;&quot;&gt;&lt;b&gt;SEMESTER 1 (Sept-Jan)&lt;/b&gt;&lt;/font&gt;" style="rounded=1;whiteSpace=wrap;html=1;fillColor=#dae8fc;strokeColor=#6c8ebf;strokeWidth=2;" parent="1" vertex="1">
                    <mxGeometry x="202" y="110" width="440" height="40" as="geometry"/>
                </mxCell>
                <mxCell id="nHz3n4UkhNaP65RYzLFG-1" value="&lt;font style=&quot;font-size: 16px;&quot;&gt;COM418&lt;br&gt;Data Analysis Tools &amp;amp; Application&lt;span style=&quot;font-size: 16px&quot;&gt;&lt;br&gt;&lt;/span&gt;&lt;/font&gt;" style="rounded=1;whiteSpace=wrap;html=1;fillColor=#dae8fc;strokeColor=#6c8ebf;strokeWidth=2;" parent="1" vertex="1">
                    <mxGeometry x="682" y="160" width="210" height="80" as="geometry"/>
                </mxCell>
                <mxCell id="nHz3n4UkhNaP65RYzLFG-2" value="&lt;font style=&quot;font-size: 16px;&quot;&gt;COM417&lt;br style=&quot;border-color: var(--border-color);&quot;&gt;Introduction to Databases&lt;/font&gt;" style="rounded=1;whiteSpace=wrap;html=1;fillColor=#dae8fc;strokeColor=#6c8ebf;strokeWidth=2;" parent="1" vertex="1">
                    <mxGeometry x="912" y="160" width="210" height="80" as="geometry"/>
                </mxCell>
                <mxCell id="nHz3n4UkhNaP65RYzLFG-4" value="&lt;b style=&quot;border-color: var(--border-color); font-size: 17px;&quot;&gt;SEMESTER 2 (Jan-May)&lt;/b&gt;" style="rounded=1;whiteSpace=wrap;html=1;fillColor=#dae8fc;strokeColor=#6c8ebf;strokeWidth=2;" parent="1" vertex="1">
                    <mxGeometry x="682" y="110" width="440" height="40" as="geometry"/>
                </mxCell>
                <mxCell id="2XFqw5RnLqFSprgKeLqg-1" value="&lt;font style=&quot;font-size: 16px;&quot;&gt;COM423&lt;br style=&quot;border-color: var(--border-color);&quot;&gt;Systems Analysis &amp;amp; Design&amp;nbsp;&lt;span style=&quot;font-size: 16px&quot;&gt;&lt;br&gt;&lt;/span&gt;&lt;/font&gt;" style="rounded=1;whiteSpace=wrap;html=1;fillColor=#dae8fc;strokeColor=#6c8ebf;strokeWidth=2;" parent="1" vertex="1">
                    <mxGeometry x="1162" y="160" width="210" height="80" as="geometry"/>
                </mxCell>
                <mxCell id="2XFqw5RnLqFSprgKeLqg-2" value="&lt;font style=&quot;font-size: 16px;&quot;&gt;COM421&lt;br style=&quot;border-color: var(--border-color);&quot;&gt;Data Structures,&lt;br style=&quot;border-color: var(--border-color);&quot;&gt;Algorithms &amp;amp; Maths&lt;/font&gt;" style="rounded=1;whiteSpace=wrap;html=1;fillColor=#dae8fc;strokeColor=#6c8ebf;strokeWidth=2;" parent="1" vertex="1">
                    <mxGeometry x="1392" y="160" width="210" height="80" as="geometry"/>
                </mxCell>
                <mxCell id="2XFqw5RnLqFSprgKeLqg-5" value="&lt;b style=&quot;border-color: var(--border-color); font-size: 17px;&quot;&gt;SEMESTER 3 (May-Sept)&lt;/b&gt;" style="rounded=1;whiteSpace=wrap;html=1;fillColor=#dae8fc;strokeColor=#6c8ebf;strokeWidth=2;" parent="1" vertex="1">
                    <mxGeometry x="1162" y="110" width="440" height="40" as="geometry"/>
                </mxCell>
                <mxCell id="Le5MB3So46LVRhM6KEtP-1" value="&lt;font&gt;&lt;span style=&quot;font-size: 16px&quot;&gt;COM517&lt;br&gt;&lt;/span&gt;&lt;span style=&quot;text-align: start; font-family: Calibri, sans-serif; border: 1pt none windowtext; padding: 0cm;&quot;&gt;&lt;font style=&quot;font-size: 16px;&quot;&gt;Analytics and Business Intelligence&lt;/font&gt;&lt;/span&gt;&lt;span style=&quot;font-size: 16px&quot;&gt;&lt;br&gt;&lt;/span&gt;&lt;/font&gt;" style="rounded=1;whiteSpace=wrap;html=1;fillColor=#e1d5e7;strokeColor=#9673a6;strokeWidth=2;" parent="1" vertex="1">
                    <mxGeometry x="202" y="350" width="210" height="80" as="geometry"/>
                </mxCell>
                <mxCell id="Le5MB3So46LVRhM6KEtP-2" value="&lt;span style=&quot;font-size: 16px;&quot;&gt;COM519&lt;br&gt;Advanced Databases&lt;/span&gt;" style="rounded=1;whiteSpace=wrap;html=1;fillColor=#e1d5e7;strokeColor=#9673a6;strokeWidth=2;" parent="1" vertex="1">
                    <mxGeometry x="432" y="350" width="210" height="80" as="geometry"/>
                </mxCell>
                <mxCell id="Le5MB3So46LVRhM6KEtP-3" value="&lt;font&gt;&lt;span style=&quot;font-size: 16px;&quot;&gt;COM624&lt;/span&gt;&lt;br style=&quot;font-size: 16px;&quot;&gt;&lt;span style=&quot;font-size: 16px;&quot;&gt;&amp;nbsp;Machine Learning&lt;/span&gt;&lt;span style=&quot;font-size: 16px&quot;&gt;&lt;br&gt;&lt;/span&gt;&lt;/font&gt;" style="rounded=1;whiteSpace=wrap;html=1;fillColor=#fff2cc;strokeColor=#d6b656;strokeWidth=2;" parent="1" vertex="1">
                    <mxGeometry x="202" y="540" width="210" height="80" as="geometry"/>
                </mxCell>
                <mxCell id="Le5MB3So46LVRhM6KEtP-4" value="&lt;span style=&quot;font-size: 16px;&quot;&gt;COM621&lt;br&gt;&amp;nbsp;UX&amp;nbsp; Strategies&lt;br&gt;&lt;/span&gt;" style="rounded=1;whiteSpace=wrap;html=1;fillColor=#fff2cc;strokeColor=#d6b656;strokeWidth=2;" parent="1" vertex="1">
                    <mxGeometry x="432" y="540" width="210" height="80" as="geometry"/>
                </mxCell>
                <mxCell id="Le5MB3So46LVRhM6KEtP-5" value="&lt;font style=&quot;font-size: 17px;&quot;&gt;&lt;b&gt;SEMESTER 1 (Sept-Jan)&lt;/b&gt;&lt;/font&gt;" style="rounded=1;whiteSpace=wrap;html=1;fillColor=#e1d5e7;strokeColor=#9673a6;strokeWidth=2;" parent="1" vertex="1">
                    <mxGeometry x="202" y="300" width="440" height="40" as="geometry"/>
                </mxCell>
                <mxCell id="Le5MB3So46LVRhM6KEtP-6" value="&lt;b style=&quot;border-color: var(--border-color); font-size: 17px;&quot;&gt;SEMESTER 2 (Jan-May)&lt;/b&gt;" style="rounded=1;whiteSpace=wrap;html=1;fillColor=#e1d5e7;strokeColor=#9673a6;strokeWidth=2;" parent="1" vertex="1">
                    <mxGeometry x="682" y="300" width="440" height="40" as="geometry"/>
                </mxCell>
                <mxCell id="Le5MB3So46LVRhM6KEtP-7" value="&lt;b style=&quot;border-color: var(--border-color); font-size: 17px;&quot;&gt;SEMESTER 3 (May-Sept)&lt;/b&gt;" style="rounded=1;whiteSpace=wrap;html=1;fillColor=#e1d5e7;strokeColor=#9673a6;strokeWidth=2;" parent="1" vertex="1">
                    <mxGeometry x="1162" y="300" width="440" height="40" as="geometry"/>
                </mxCell>
                <mxCell id="Le5MB3So46LVRhM6KEtP-8" value="&lt;font style=&quot;font-size: 17px;&quot;&gt;&lt;b&gt;SEMESTER 1 (Sept-Jan)&lt;/b&gt;&lt;/font&gt;" style="rounded=1;whiteSpace=wrap;html=1;fillColor=#fff2cc;strokeColor=#d6b656;strokeWidth=2;" parent="1" vertex="1">
                    <mxGeometry x="202" y="490" width="440" height="40" as="geometry"/>
                </mxCell>
                <mxCell id="Le5MB3So46LVRhM6KEtP-9" value="&lt;b style=&quot;border-color: var(--border-color); font-size: 17px;&quot;&gt;SEMESTER 2 (Jan-May)&lt;/b&gt;" style="rounded=1;whiteSpace=wrap;html=1;fillColor=#fff2cc;strokeColor=#d6b656;strokeWidth=2;" parent="1" vertex="1">
                    <mxGeometry x="682" y="490" width="440" height="40" as="geometry"/>
                </mxCell>
                <mxCell id="Le5MB3So46LVRhM6KEtP-10" value="&lt;b style=&quot;border-color: var(--border-color); font-size: 17px;&quot;&gt;SEMESTER 3 (May-Sept)&lt;/b&gt;" style="rounded=1;whiteSpace=wrap;html=1;fillColor=#fff2cc;strokeColor=#d6b656;strokeWidth=2;" parent="1" vertex="1">
                    <mxGeometry x="1162" y="490" width="440" height="40" as="geometry"/>
                </mxCell>
                <mxCell id="QbiiDBdozPDa6CCJ6g8p-2" value="&lt;b style=&quot;font-size: 22px;&quot;&gt;Level 4&lt;br&gt;(Year 1)&lt;/b&gt;" style="text;html=1;align=center;verticalAlign=middle;whiteSpace=wrap;rounded=0;" parent="1" vertex="1">
                    <mxGeometry x="62" y="145" width="110" height="60" as="geometry"/>
                </mxCell>
                <mxCell id="QbiiDBdozPDa6CCJ6g8p-4" value="&lt;b style=&quot;font-size: 22px;&quot;&gt;Level 5&lt;br&gt;(Year 2)&lt;/b&gt;" style="text;html=1;strokeColor=none;fillColor=none;align=center;verticalAlign=middle;whiteSpace=wrap;rounded=0;" parent="1" vertex="1">
                    <mxGeometry x="72" y="335" width="110" height="60" as="geometry"/>
                </mxCell>
                <mxCell id="QbiiDBdozPDa6CCJ6g8p-6" value="&lt;b style=&quot;font-size: 22px;&quot;&gt;Level 6&lt;br&gt;(Year 3)&lt;/b&gt;" style="text;html=1;strokeColor=none;fillColor=none;align=center;verticalAlign=middle;whiteSpace=wrap;rounded=0;" parent="1" vertex="1">
                    <mxGeometry x="72" y="525" width="110" height="60" as="geometry"/>
                </mxCell>
                <mxCell id="GjDxFLDzHPWTFjKCmDpf-1" value="&lt;font style=&quot;font-size: 16px;&quot;&gt;COM529&lt;br&gt;Economic &amp;amp; Financial Analysis&lt;span style=&quot;font-size: 16px&quot;&gt;&lt;br&gt;&lt;/span&gt;&lt;/font&gt;" style="rounded=1;whiteSpace=wrap;html=1;fillColor=#e1d5e7;strokeColor=#9673a6;strokeWidth=2;" parent="1" vertex="1">
                    <mxGeometry x="682" y="350" width="210" height="80" as="geometry"/>
                </mxCell>
                <mxCell id="GjDxFLDzHPWTFjKCmDpf-2" value="&lt;font style=&quot;font-size: 16px;&quot;&gt;COM526&lt;br style=&quot;border-color: var(--border-color);&quot;&gt;Introduction to AI&lt;/font&gt;" style="rounded=1;whiteSpace=wrap;html=1;fillColor=#e1d5e7;strokeColor=#9673a6;strokeWidth=2;" parent="1" vertex="1">
                    <mxGeometry x="912" y="350" width="210" height="80" as="geometry"/>
                </mxCell>
                <mxCell id="GjDxFLDzHPWTFjKCmDpf-3" value="&lt;font style=&quot;font-size: 16px;&quot;&gt;COM617&lt;br style=&quot;border-color: var(--border-color);&quot;&gt;&amp;nbsp;Industrial Consulting Project&lt;br&gt;&lt;/font&gt;" style="rounded=1;whiteSpace=wrap;html=1;fillColor=#e1d5e7;strokeColor=#9673a6;strokeWidth=2;" parent="1" vertex="1">
                    <mxGeometry x="1162" y="350" width="210" height="80" as="geometry"/>
                </mxCell>
                <mxCell id="GjDxFLDzHPWTFjKCmDpf-4" value="&lt;font style=&quot;font-size: 16px;&quot;&gt;COM618&lt;br&gt;Data Science&lt;/font&gt;&lt;span style=&quot;font-size: 16px;&quot;&gt;&lt;br&gt;&lt;/span&gt;" style="rounded=1;whiteSpace=wrap;html=1;fillColor=#e1d5e7;strokeColor=#9673a6;strokeWidth=2;" parent="1" vertex="1">
                    <mxGeometry x="1392" y="350" width="210" height="80" as="geometry"/>
                </mxCell>
                <mxCell id="s14-3vbyRsZPjKJsENBa-1" value="&lt;font style=&quot;font-size: 16px;&quot;&gt;COM532&lt;br style=&quot;border-color: var(--border-color);&quot;&gt;Work Based IT Project Management&lt;span style=&quot;font-size: 16px&quot;&gt;&lt;br&gt;&lt;/span&gt;&lt;/font&gt;" style="rounded=1;whiteSpace=wrap;html=1;fillColor=#fff2cc;strokeColor=#d6b656;strokeWidth=2;" parent="1" vertex="1">
                    <mxGeometry x="682" y="540" width="210" height="80" as="geometry"/>
                </mxCell>
                <mxCell id="s14-3vbyRsZPjKJsENBa-2" value="&lt;font style=&quot;font-size: 16px;&quot;&gt;COM530&lt;br style=&quot;border-color: var(--border-color);&quot;&gt;Work Based Business Organisation&lt;/font&gt;" style="rounded=1;whiteSpace=wrap;html=1;fillColor=#fff2cc;strokeColor=#d6b656;strokeWidth=2;" parent="1" vertex="1">
                    <mxGeometry x="912" y="540" width="210" height="80" as="geometry"/>
                </mxCell>
                <mxCell id="s14-3vbyRsZPjKJsENBa-5" value="&lt;font style=&quot;font-size: 16px;&quot;&gt;COMXXX (Zero Credit)&lt;br&gt;Digital Technology Solutions Gateway&lt;/font&gt;" style="rounded=1;whiteSpace=wrap;html=1;fillColor=#fff2cc;strokeColor=#d6b656;strokeWidth=2;" parent="1" vertex="1">
                    <mxGeometry x="1162" y="540" width="440" height="80" as="geometry"/>
                </mxCell>
                <mxCell id="s14-3vbyRsZPjKJsENBa-6" value="" style="rounded=1;whiteSpace=wrap;html=1;strokeWidth=2;" parent="1" vertex="1">
                    <mxGeometry x="42" y="670" width="1580" height="170" as="geometry"/>
                </mxCell>
                <mxCell id="s14-3vbyRsZPjKJsENBa-7" value="&lt;font style=&quot;font-size: 16px;&quot;&gt;COMXXX (40 Credit)&lt;br&gt;Digital &amp;amp; Technology Solutions EPA&lt;br&gt;&lt;/font&gt;" style="rounded=1;whiteSpace=wrap;html=1;fillColor=#60a917;strokeColor=#2D7600;strokeWidth=2;fontColor=#ffffff;" parent="1" vertex="1">
                    <mxGeometry x="202" y="740" width="440" height="80" as="geometry"/>
                </mxCell>
                <mxCell id="s14-3vbyRsZPjKJsENBa-9" value="&lt;font style=&quot;font-size: 17px;&quot;&gt;&lt;b&gt;Sept-Jan&lt;/b&gt;&lt;/font&gt;" style="rounded=1;whiteSpace=wrap;html=1;fillColor=#60a917;strokeColor=#2D7600;strokeWidth=2;fontColor=#ffffff;" parent="1" vertex="1">
                    <mxGeometry x="202" y="690" width="440" height="40" as="geometry"/>
                </mxCell>
                <mxCell id="s14-3vbyRsZPjKJsENBa-12" value="&lt;b style=&quot;font-size: 22px;&quot;&gt;EPA&lt;br&gt;&lt;/b&gt;" style="text;html=1;strokeColor=none;fillColor=none;align=center;verticalAlign=middle;whiteSpace=wrap;rounded=0;" parent="1" vertex="1">
                    <mxGeometry x="72" y="725" width="110" height="60" as="geometry"/>
                </mxCell>
                <mxCell id="s14-3vbyRsZPjKJsENBa-16" value="&lt;font style=&quot;font-size: 36px;&quot;&gt;&lt;b&gt;BDATS Data Analyst - New Standard 2023 Version 1.2&amp;nbsp;&lt;/b&gt;&lt;/font&gt;" style="text;html=1;align=center;verticalAlign=middle;resizable=0;points=[];autosize=1;strokeColor=none;fillColor=none;" parent="1" vertex="1">
                    <mxGeometry x="42" y="10" width="940" height="60" as="geometry"/>
                </mxCell>
            </root>
        </mxGraphModel>
    </diagram>
    <diagram name="BDATS_SOFTWARE" id="IDxoDhFUZz8goqclk6p1">
        <mxGraphModel dx="1039" dy="547" grid="1" gridSize="10" guides="1" tooltips="1" connect="1" arrows="1" fold="1" page="1" pageScale="1" pageWidth="827" pageHeight="1169" math="0" shadow="0">
            <root>
                <mxCell id="1_NoqtApiibmHGhhlHiK-0"/>
                <mxCell id="1_NoqtApiibmHGhhlHiK-1" parent="1_NoqtApiibmHGhhlHiK-0"/>
                <mxCell id="1_NoqtApiibmHGhhlHiK-2" value="" style="rounded=1;whiteSpace=wrap;html=1;strokeWidth=2;" parent="1_NoqtApiibmHGhhlHiK-1" vertex="1">
                    <mxGeometry x="42" y="470" width="1580" height="170" as="geometry"/>
                </mxCell>
                <mxCell id="1_NoqtApiibmHGhhlHiK-3" value="" style="rounded=1;whiteSpace=wrap;html=1;strokeWidth=2;" parent="1_NoqtApiibmHGhhlHiK-1" vertex="1">
                    <mxGeometry x="42" y="280" width="1580" height="170" as="geometry"/>
                </mxCell>
                <mxCell id="1_NoqtApiibmHGhhlHiK-4" value="" style="rounded=1;whiteSpace=wrap;html=1;strokeWidth=2;" parent="1_NoqtApiibmHGhhlHiK-1" vertex="1">
                    <mxGeometry x="42" y="90" width="1580" height="170" as="geometry"/>
                </mxCell>
                <mxCell id="1_NoqtApiibmHGhhlHiK-5" value="&lt;font&gt;&lt;span style=&quot;font-size: 16px&quot;&gt;COM411&lt;br&gt;Problem Solving through Programming)&lt;/span&gt;&lt;/font&gt;" style="rounded=1;whiteSpace=wrap;html=1;fillColor=#dae8fc;strokeColor=#6c8ebf;strokeWidth=2;" parent="1_NoqtApiibmHGhhlHiK-1" vertex="1">
                    <mxGeometry x="202" y="160" width="210" height="80" as="geometry"/>
                </mxCell>
                <mxCell id="1_NoqtApiibmHGhhlHiK-6" value="&lt;span style=&quot;font-size: 16px&quot;&gt;COM412&lt;br&gt;Introduction to Networks&lt;br&gt;&amp;amp; Security&lt;/span&gt;" style="rounded=1;whiteSpace=wrap;html=1;fillColor=#dae8fc;strokeColor=#6c8ebf;strokeWidth=2;" parent="1_NoqtApiibmHGhhlHiK-1" vertex="1">
                    <mxGeometry x="432" y="160" width="210" height="80" as="geometry"/>
                </mxCell>
                <mxCell id="1_NoqtApiibmHGhhlHiK-7" value="&lt;font style=&quot;font-size: 17px;&quot;&gt;&lt;b&gt;SEMESTER 1 (Sept-Jan)&lt;/b&gt;&lt;/font&gt;" style="rounded=1;whiteSpace=wrap;html=1;fillColor=#dae8fc;strokeColor=#6c8ebf;strokeWidth=2;" parent="1_NoqtApiibmHGhhlHiK-1" vertex="1">
                    <mxGeometry x="202" y="110" width="440" height="40" as="geometry"/>
                </mxCell>
                <mxCell id="1_NoqtApiibmHGhhlHiK-9" value="&lt;font style=&quot;font-size: 16px;&quot;&gt;COM417&lt;br style=&quot;border-color: var(--border-color);&quot;&gt;Introduction to Databases&lt;/font&gt;" style="rounded=1;whiteSpace=wrap;html=1;fillColor=#dae8fc;strokeColor=#6c8ebf;strokeWidth=2;" parent="1_NoqtApiibmHGhhlHiK-1" vertex="1">
                    <mxGeometry x="910" y="160" width="212" height="80" as="geometry"/>
                </mxCell>
                <mxCell id="1_NoqtApiibmHGhhlHiK-10" value="&lt;b style=&quot;border-color: var(--border-color); font-size: 17px;&quot;&gt;SEMESTER 2 (Jan-May)&lt;/b&gt;" style="rounded=1;whiteSpace=wrap;html=1;fillColor=#dae8fc;strokeColor=#6c8ebf;strokeWidth=2;" parent="1_NoqtApiibmHGhhlHiK-1" vertex="1">
                    <mxGeometry x="682" y="110" width="440" height="40" as="geometry"/>
                </mxCell>
                <mxCell id="1_NoqtApiibmHGhhlHiK-11" value="&lt;font style=&quot;font-size: 16px;&quot;&gt;COM423&lt;br style=&quot;border-color: var(--border-color);&quot;&gt;Systems Analysis &amp;amp; Design&amp;nbsp;&lt;span style=&quot;font-size: 16px&quot;&gt;&lt;br&gt;&lt;/span&gt;&lt;/font&gt;" style="rounded=1;whiteSpace=wrap;html=1;fillColor=#dae8fc;strokeColor=#6c8ebf;strokeWidth=2;" parent="1_NoqtApiibmHGhhlHiK-1" vertex="1">
                    <mxGeometry x="1162" y="160" width="210" height="80" as="geometry"/>
                </mxCell>
                <mxCell id="1_NoqtApiibmHGhhlHiK-12" value="&lt;font style=&quot;font-size: 16px;&quot;&gt;COM421&lt;br style=&quot;border-color: var(--border-color);&quot;&gt;Data Structures,&lt;br style=&quot;border-color: var(--border-color);&quot;&gt;Algorithms &amp;amp; Maths&lt;/font&gt;" style="rounded=1;whiteSpace=wrap;html=1;fillColor=#dae8fc;strokeColor=#6c8ebf;strokeWidth=2;" parent="1_NoqtApiibmHGhhlHiK-1" vertex="1">
                    <mxGeometry x="1392" y="160" width="210" height="80" as="geometry"/>
                </mxCell>
                <mxCell id="1_NoqtApiibmHGhhlHiK-13" value="&lt;b style=&quot;border-color: var(--border-color); font-size: 17px;&quot;&gt;SEMESTER 3 (May-Sept)&lt;/b&gt;" style="rounded=1;whiteSpace=wrap;html=1;fillColor=#dae8fc;strokeColor=#6c8ebf;strokeWidth=2;" parent="1_NoqtApiibmHGhhlHiK-1" vertex="1">
                    <mxGeometry x="1162" y="110" width="440" height="40" as="geometry"/>
                </mxCell>
                <mxCell id="1_NoqtApiibmHGhhlHiK-15" value="&lt;span style=&quot;font-size: 16px;&quot;&gt;COM519&lt;br&gt;Advanced Databases&lt;/span&gt;" style="rounded=1;whiteSpace=wrap;html=1;fillColor=#e1d5e7;strokeColor=#9673a6;strokeWidth=2;" parent="1_NoqtApiibmHGhhlHiK-1" vertex="1">
                    <mxGeometry x="432" y="350" width="210" height="80" as="geometry"/>
                </mxCell>
                <mxCell id="1_NoqtApiibmHGhhlHiK-16" value="&lt;font&gt;&lt;span style=&quot;font-size: 16px;&quot;&gt;COM624&lt;/span&gt;&lt;br style=&quot;font-size: 16px;&quot;&gt;&lt;span style=&quot;font-size: 16px;&quot;&gt;&amp;nbsp;Machine Learning&lt;/span&gt;&lt;span style=&quot;font-size: 16px&quot;&gt;&lt;br&gt;&lt;/span&gt;&lt;/font&gt;" style="rounded=1;whiteSpace=wrap;html=1;fillColor=#fff2cc;strokeColor=#d6b656;strokeWidth=2;" parent="1_NoqtApiibmHGhhlHiK-1" vertex="1">
                    <mxGeometry x="202" y="540" width="210" height="80" as="geometry"/>
                </mxCell>
                <mxCell id="1_NoqtApiibmHGhhlHiK-18" value="&lt;font style=&quot;font-size: 17px;&quot;&gt;&lt;b&gt;SEMESTER 1 (Sept-Jan)&lt;/b&gt;&lt;/font&gt;" style="rounded=1;whiteSpace=wrap;html=1;fillColor=#e1d5e7;strokeColor=#9673a6;strokeWidth=2;" parent="1_NoqtApiibmHGhhlHiK-1" vertex="1">
                    <mxGeometry x="202" y="300" width="440" height="40" as="geometry"/>
                </mxCell>
                <mxCell id="1_NoqtApiibmHGhhlHiK-19" value="&lt;b style=&quot;border-color: var(--border-color); font-size: 17px;&quot;&gt;SEMESTER 2 (Jan-May)&lt;/b&gt;" style="rounded=1;whiteSpace=wrap;html=1;fillColor=#e1d5e7;strokeColor=#9673a6;strokeWidth=2;" parent="1_NoqtApiibmHGhhlHiK-1" vertex="1">
                    <mxGeometry x="682" y="300" width="440" height="40" as="geometry"/>
                </mxCell>
                <mxCell id="1_NoqtApiibmHGhhlHiK-20" value="&lt;b style=&quot;border-color: var(--border-color); font-size: 17px;&quot;&gt;SEMESTER 3 (May-Sept)&lt;/b&gt;" style="rounded=1;whiteSpace=wrap;html=1;fillColor=#e1d5e7;strokeColor=#9673a6;strokeWidth=2;" parent="1_NoqtApiibmHGhhlHiK-1" vertex="1">
                    <mxGeometry x="1162" y="300" width="440" height="40" as="geometry"/>
                </mxCell>
                <mxCell id="1_NoqtApiibmHGhhlHiK-21" value="&lt;font style=&quot;font-size: 17px;&quot;&gt;&lt;b&gt;SEMESTER 1 (Sept-Jan)&lt;/b&gt;&lt;/font&gt;" style="rounded=1;whiteSpace=wrap;html=1;fillColor=#fff2cc;strokeColor=#d6b656;strokeWidth=2;" parent="1_NoqtApiibmHGhhlHiK-1" vertex="1">
                    <mxGeometry x="202" y="490" width="440" height="40" as="geometry"/>
                </mxCell>
                <mxCell id="1_NoqtApiibmHGhhlHiK-22" value="&lt;b style=&quot;border-color: var(--border-color); font-size: 17px;&quot;&gt;SEMESTER 2 (Jan-May)&lt;/b&gt;" style="rounded=1;whiteSpace=wrap;html=1;fillColor=#fff2cc;strokeColor=#d6b656;strokeWidth=2;" parent="1_NoqtApiibmHGhhlHiK-1" vertex="1">
                    <mxGeometry x="682" y="490" width="440" height="40" as="geometry"/>
                </mxCell>
                <mxCell id="1_NoqtApiibmHGhhlHiK-23" value="&lt;b style=&quot;border-color: var(--border-color); font-size: 17px;&quot;&gt;SEMESTER 3 (May-Sept)&lt;/b&gt;" style="rounded=1;whiteSpace=wrap;html=1;fillColor=#fff2cc;strokeColor=#d6b656;strokeWidth=2;" parent="1_NoqtApiibmHGhhlHiK-1" vertex="1">
                    <mxGeometry x="1162" y="490" width="440" height="40" as="geometry"/>
                </mxCell>
                <mxCell id="1_NoqtApiibmHGhhlHiK-24" value="&lt;b style=&quot;font-size: 22px;&quot;&gt;Level 4&lt;br&gt;(Year 1)&lt;/b&gt;" style="text;html=1;align=center;verticalAlign=middle;whiteSpace=wrap;rounded=0;" parent="1_NoqtApiibmHGhhlHiK-1" vertex="1">
                    <mxGeometry x="62" y="145" width="110" height="60" as="geometry"/>
                </mxCell>
                <mxCell id="1_NoqtApiibmHGhhlHiK-25" value="&lt;b style=&quot;font-size: 22px;&quot;&gt;Level 5&lt;br&gt;(Year 2)&lt;/b&gt;" style="text;html=1;strokeColor=none;fillColor=none;align=center;verticalAlign=middle;whiteSpace=wrap;rounded=0;" parent="1_NoqtApiibmHGhhlHiK-1" vertex="1">
                    <mxGeometry x="72" y="335" width="110" height="60" as="geometry"/>
                </mxCell>
                <mxCell id="1_NoqtApiibmHGhhlHiK-26" value="&lt;b style=&quot;font-size: 22px;&quot;&gt;Level 6&lt;br&gt;(Year 3)&lt;/b&gt;" style="text;html=1;strokeColor=none;fillColor=none;align=center;verticalAlign=middle;whiteSpace=wrap;rounded=0;" parent="1_NoqtApiibmHGhhlHiK-1" vertex="1">
                    <mxGeometry x="72" y="525" width="110" height="60" as="geometry"/>
                </mxCell>
                <mxCell id="1_NoqtApiibmHGhhlHiK-29" value="&lt;font style=&quot;font-size: 16px;&quot;&gt;COM617&lt;br style=&quot;border-color: var(--border-color);&quot;&gt;&amp;nbsp;Industrial Consulting Project&lt;br&gt;&lt;/font&gt;" style="rounded=1;whiteSpace=wrap;html=1;fillColor=#fff2cc;strokeColor=#d6b656;strokeWidth=2;" parent="1_NoqtApiibmHGhhlHiK-1" vertex="1">
                    <mxGeometry x="682" y="545" width="210" height="80" as="geometry"/>
                </mxCell>
                <mxCell id="1_NoqtApiibmHGhhlHiK-30" value="&lt;font style=&quot;font-size: 16px;&quot;&gt;COM618&lt;br&gt;Data Science&lt;/font&gt;&lt;span style=&quot;font-size: 16px;&quot;&gt;&lt;br&gt;&lt;/span&gt;" style="rounded=1;whiteSpace=wrap;html=1;fillColor=#fff2cc;strokeColor=#d6b656;strokeWidth=2;" parent="1_NoqtApiibmHGhhlHiK-1" vertex="1">
                    <mxGeometry x="912" y="545" width="210" height="80" as="geometry"/>
                </mxCell>
                <mxCell id="1_NoqtApiibmHGhhlHiK-31" value="&lt;font style=&quot;font-size: 16px;&quot;&gt;COM532&lt;br style=&quot;border-color: var(--border-color);&quot;&gt;Work Based IT Project Management&lt;span style=&quot;font-size: 16px&quot;&gt;&lt;br&gt;&lt;/span&gt;&lt;/font&gt;" style="rounded=1;whiteSpace=wrap;html=1;fillColor=#e1d5e7;strokeColor=#9673a6;strokeWidth=2;" parent="1_NoqtApiibmHGhhlHiK-1" vertex="1">
                    <mxGeometry x="1162" y="350" width="210" height="80" as="geometry"/>
                </mxCell>
                <mxCell id="1_NoqtApiibmHGhhlHiK-32" value="&lt;font style=&quot;font-size: 16px;&quot;&gt;COM530&lt;br style=&quot;border-color: var(--border-color);&quot;&gt;Work Based Business Organisation&lt;/font&gt;" style="rounded=1;whiteSpace=wrap;html=1;fillColor=#e1d5e7;strokeColor=#9673a6;strokeWidth=2;" parent="1_NoqtApiibmHGhhlHiK-1" vertex="1">
                    <mxGeometry x="1392" y="350" width="210" height="80" as="geometry"/>
                </mxCell>
                <mxCell id="1_NoqtApiibmHGhhlHiK-33" value="&lt;font style=&quot;font-size: 16px;&quot;&gt;COM628 (Zero Credit)&lt;br&gt;Digital Technology Solutions Gateway&lt;/font&gt;" style="rounded=1;whiteSpace=wrap;html=1;fillColor=#fff2cc;strokeColor=#d6b656;strokeWidth=2;" parent="1_NoqtApiibmHGhhlHiK-1" vertex="1">
                    <mxGeometry x="1162" y="545" width="440" height="80" as="geometry"/>
                </mxCell>
                <mxCell id="1_NoqtApiibmHGhhlHiK-34" value="" style="rounded=1;whiteSpace=wrap;html=1;strokeWidth=2;" parent="1_NoqtApiibmHGhhlHiK-1" vertex="1">
                    <mxGeometry x="42" y="670" width="1580" height="170" as="geometry"/>
                </mxCell>
                <mxCell id="1_NoqtApiibmHGhhlHiK-35" value="&lt;font style=&quot;font-size: 16px;&quot;&gt;COM627 (40 Credit)&lt;br&gt;Digital &amp;amp; Technology Solutions EPA&lt;br&gt;&lt;/font&gt;" style="rounded=1;whiteSpace=wrap;html=1;fillColor=#60a917;strokeColor=#2D7600;strokeWidth=2;fontColor=#ffffff;" parent="1_NoqtApiibmHGhhlHiK-1" vertex="1">
                    <mxGeometry x="202" y="740" width="440" height="80" as="geometry"/>
                </mxCell>
                <mxCell id="1_NoqtApiibmHGhhlHiK-36" value="&lt;font style=&quot;font-size: 17px;&quot;&gt;&lt;b&gt;Sept-Jan&lt;/b&gt;&lt;/font&gt;" style="rounded=1;whiteSpace=wrap;html=1;fillColor=#60a917;strokeColor=#2D7600;strokeWidth=2;fontColor=#ffffff;" parent="1_NoqtApiibmHGhhlHiK-1" vertex="1">
                    <mxGeometry x="202" y="690" width="440" height="40" as="geometry"/>
                </mxCell>
                <mxCell id="1_NoqtApiibmHGhhlHiK-37" value="&lt;b style=&quot;font-size: 22px;&quot;&gt;EPA&lt;br&gt;&lt;/b&gt;" style="text;html=1;strokeColor=none;fillColor=none;align=center;verticalAlign=middle;whiteSpace=wrap;rounded=0;" parent="1_NoqtApiibmHGhhlHiK-1" vertex="1">
                    <mxGeometry x="72" y="725" width="110" height="60" as="geometry"/>
                </mxCell>
                <mxCell id="1_NoqtApiibmHGhhlHiK-38" value="&lt;font style=&quot;font-size: 36px;&quot;&gt;&lt;b&gt;BDATS Software Engineer - New Standard 2023 Version 1.2&amp;nbsp;&lt;/b&gt;&lt;/font&gt;" style="text;html=1;align=center;verticalAlign=middle;resizable=0;points=[];autosize=1;strokeColor=none;fillColor=none;" parent="1_NoqtApiibmHGhhlHiK-1" vertex="1">
                    <mxGeometry x="42" y="10" width="1040" height="60" as="geometry"/>
                </mxCell>
                <mxCell id="FyI0z2VFPIabcOspeWA6-0" value="&lt;font&gt;&lt;span style=&quot;font-size: 16px&quot;&gt;COM528&lt;br&gt;&amp;nbsp;Object Orientated&lt;br&gt;&lt;/span&gt;&lt;/font&gt;" style="rounded=1;whiteSpace=wrap;html=1;fillColor=#e1d5e7;strokeColor=#9673a6;strokeWidth=2;" parent="1_NoqtApiibmHGhhlHiK-1" vertex="1">
                    <mxGeometry x="202" y="350" width="208" height="80" as="geometry"/>
                </mxCell>
                <mxCell id="FyI0z2VFPIabcOspeWA6-5" value="&lt;span style=&quot;font-size: 16px;&quot;&gt;COM619&lt;br&gt;Dev Ops&lt;/span&gt;" style="rounded=1;whiteSpace=wrap;html=1;fillColor=#fff2cc;strokeColor=#d6b656;strokeWidth=2;" parent="1_NoqtApiibmHGhhlHiK-1" vertex="1">
                    <mxGeometry x="430" y="540" width="212" height="80" as="geometry"/>
                </mxCell>
                <mxCell id="wze11_uXiys3I81di1LD-0" value="&lt;font style=&quot;font-size: 16px;&quot;&gt;COM422&lt;br&gt;Software Testing &amp;amp; Reliability Engineering&lt;span style=&quot;font-size: 16px&quot;&gt;&lt;br&gt;&lt;/span&gt;&lt;/font&gt;" style="rounded=1;whiteSpace=wrap;html=1;fillColor=#dae8fc;strokeColor=#6c8ebf;strokeWidth=2;" parent="1_NoqtApiibmHGhhlHiK-1" vertex="1">
                    <mxGeometry x="682" y="160" width="208" height="80" as="geometry"/>
                </mxCell>
                <mxCell id="eyPDoyy5ns5S91ZpYRCQ-0" value="&lt;font style=&quot;font-size: 16px;&quot;&gt;COM527&lt;br&gt;Mobile Application Dev&lt;span style=&quot;font-size: 16px&quot;&gt;&lt;br&gt;&lt;/span&gt;&lt;/font&gt;" style="rounded=1;whiteSpace=wrap;html=1;fillColor=#e1d5e7;strokeColor=#9673a6;strokeWidth=2;" parent="1_NoqtApiibmHGhhlHiK-1" vertex="1">
                    <mxGeometry x="682" y="350" width="208" height="80" as="geometry"/>
                </mxCell>
                <mxCell id="eyPDoyy5ns5S91ZpYRCQ-1" value="&lt;font style=&quot;font-size: 16px;&quot;&gt;COM526&lt;br&gt;Introduction to AI&lt;/font&gt;" style="rounded=1;whiteSpace=wrap;html=1;fillColor=#e1d5e7;strokeColor=#9673a6;strokeWidth=2;" parent="1_NoqtApiibmHGhhlHiK-1" vertex="1">
                    <mxGeometry x="910" y="350" width="212" height="80" as="geometry"/>
                </mxCell>
                <mxCell id="BOfAsEiiRg0iwX8GVrMe-0" value="" style="rounded=1;whiteSpace=wrap;html=1;strokeWidth=2;" parent="1_NoqtApiibmHGhhlHiK-1" vertex="1">
                    <mxGeometry x="42" y="1360" width="1580" height="170" as="geometry"/>
                </mxCell>
                <mxCell id="BOfAsEiiRg0iwX8GVrMe-1" value="" style="rounded=1;whiteSpace=wrap;html=1;strokeWidth=2;" parent="1_NoqtApiibmHGhhlHiK-1" vertex="1">
                    <mxGeometry x="42" y="1170" width="1580" height="170" as="geometry"/>
                </mxCell>
                <mxCell id="BOfAsEiiRg0iwX8GVrMe-2" value="" style="rounded=1;whiteSpace=wrap;html=1;strokeWidth=2;" parent="1_NoqtApiibmHGhhlHiK-1" vertex="1">
                    <mxGeometry x="42" y="980" width="1580" height="170" as="geometry"/>
                </mxCell>
                <mxCell id="BOfAsEiiRg0iwX8GVrMe-3" value="&lt;font&gt;&lt;span style=&quot;font-size: 16px&quot;&gt;COM411&lt;br&gt;Problem Solving through Programming)&lt;/span&gt;&lt;/font&gt;" style="rounded=1;whiteSpace=wrap;html=1;fillColor=#dae8fc;strokeColor=#6c8ebf;strokeWidth=2;" parent="1_NoqtApiibmHGhhlHiK-1" vertex="1">
                    <mxGeometry x="202" y="1050" width="210" height="80" as="geometry"/>
                </mxCell>
                <mxCell id="BOfAsEiiRg0iwX8GVrMe-4" value="&lt;font style=&quot;font-size: 16px;&quot;&gt;COM???&lt;br&gt;Web &amp;amp; Network Essentials&lt;br&gt;&lt;b&gt;NEW MODULE&lt;/b&gt;&lt;br&gt;&lt;/font&gt;" style="rounded=1;whiteSpace=wrap;html=1;fillColor=#dae8fc;strokeColor=#FF0000;strokeWidth=2;" parent="1_NoqtApiibmHGhhlHiK-1" vertex="1">
                    <mxGeometry x="432" y="1050" width="210" height="80" as="geometry"/>
                </mxCell>
                <mxCell id="BOfAsEiiRg0iwX8GVrMe-5" value="&lt;font style=&quot;font-size: 17px;&quot;&gt;&lt;b&gt;TRIMESTER 1 (Sept-Jan)&lt;/b&gt;&lt;/font&gt;" style="rounded=1;whiteSpace=wrap;html=1;fillColor=#dae8fc;strokeColor=#6c8ebf;strokeWidth=2;" parent="1_NoqtApiibmHGhhlHiK-1" vertex="1">
                    <mxGeometry x="202" y="1000" width="440" height="40" as="geometry"/>
                </mxCell>
                <mxCell id="BOfAsEiiRg0iwX8GVrMe-6" value="&lt;font style=&quot;font-size: 16px;&quot;&gt;COM417&lt;br style=&quot;border-color: var(--border-color);&quot;&gt;Introduction to Databases&lt;/font&gt;" style="rounded=1;whiteSpace=wrap;html=1;fillColor=#dae8fc;strokeColor=#6c8ebf;strokeWidth=2;" parent="1_NoqtApiibmHGhhlHiK-1" vertex="1">
                    <mxGeometry x="910" y="1050" width="212" height="80" as="geometry"/>
                </mxCell>
                <mxCell id="BOfAsEiiRg0iwX8GVrMe-7" value="&lt;b style=&quot;border-color: var(--border-color); font-size: 17px;&quot;&gt;TRIMESTER 2 (Jan-May)&lt;/b&gt;" style="rounded=1;whiteSpace=wrap;html=1;fillColor=#dae8fc;strokeColor=#6c8ebf;strokeWidth=2;" parent="1_NoqtApiibmHGhhlHiK-1" vertex="1">
                    <mxGeometry x="682" y="1000" width="440" height="40" as="geometry"/>
                </mxCell>
                <mxCell id="BOfAsEiiRg0iwX8GVrMe-8" value="&lt;font style=&quot;font-size: 16px;&quot;&gt;COM423&lt;br style=&quot;border-color: var(--border-color);&quot;&gt;Systems Analysis &amp;amp; Design&amp;nbsp;&lt;span style=&quot;font-size: 16px&quot;&gt;&lt;br&gt;&lt;/span&gt;&lt;/font&gt;" style="rounded=1;whiteSpace=wrap;html=1;fillColor=#dae8fc;strokeColor=#6c8ebf;strokeWidth=2;" parent="1_NoqtApiibmHGhhlHiK-1" vertex="1">
                    <mxGeometry x="1162" y="1050" width="210" height="80" as="geometry"/>
                </mxCell>
                <mxCell id="BOfAsEiiRg0iwX8GVrMe-9" value="&lt;font style=&quot;font-size: 16px;&quot;&gt;COM421&lt;br style=&quot;border-color: var(--border-color);&quot;&gt;Data Structures,&lt;br style=&quot;border-color: var(--border-color);&quot;&gt;Algorithms &amp;amp; Maths&lt;/font&gt;" style="rounded=1;whiteSpace=wrap;html=1;fillColor=#dae8fc;strokeColor=#6c8ebf;strokeWidth=2;" parent="1_NoqtApiibmHGhhlHiK-1" vertex="1">
                    <mxGeometry x="1392" y="1050" width="210" height="80" as="geometry"/>
                </mxCell>
                <mxCell id="BOfAsEiiRg0iwX8GVrMe-10" value="&lt;b style=&quot;border-color: var(--border-color); font-size: 17px;&quot;&gt;TRIMESTER 3 (May-Sept)&lt;/b&gt;" style="rounded=1;whiteSpace=wrap;html=1;fillColor=#dae8fc;strokeColor=#6c8ebf;strokeWidth=2;" parent="1_NoqtApiibmHGhhlHiK-1" vertex="1">
                    <mxGeometry x="1162" y="1000" width="440" height="40" as="geometry"/>
                </mxCell>
                <mxCell id="BOfAsEiiRg0iwX8GVrMe-11" value="&lt;span style=&quot;font-size: 16px;&quot;&gt;COM526&lt;/span&gt;&lt;br style=&quot;font-size: 16px;&quot;&gt;&lt;span style=&quot;font-size: 16px;&quot;&gt;Introduction to AI&lt;br&gt;&lt;b&gt;Moved from Sem 2&lt;/b&gt;&lt;/span&gt;" style="rounded=1;whiteSpace=wrap;html=1;fillColor=#e1d5e7;strokeColor=light-dark(#fa0000, #9577a3);strokeWidth=2;" parent="1_NoqtApiibmHGhhlHiK-1" vertex="1">
                    <mxGeometry x="432" y="1240" width="210" height="80" as="geometry"/>
                </mxCell>
                <mxCell id="BOfAsEiiRg0iwX8GVrMe-12" value="&lt;font&gt;&lt;span style=&quot;font-size: 16px;&quot;&gt;COM624&lt;/span&gt;&lt;br style=&quot;font-size: 16px;&quot;&gt;&lt;span style=&quot;font-size: 16px;&quot;&gt;&amp;nbsp;Machine Learning&lt;/span&gt;&lt;span style=&quot;font-size: 16px&quot;&gt;&lt;br&gt;&lt;/span&gt;&lt;/font&gt;" style="rounded=1;whiteSpace=wrap;html=1;fillColor=#ffe6cc;strokeColor=#d79b00;strokeWidth=2;" parent="1_NoqtApiibmHGhhlHiK-1" vertex="1">
                    <mxGeometry x="202" y="1430" width="210" height="80" as="geometry"/>
                </mxCell>
                <mxCell id="BOfAsEiiRg0iwX8GVrMe-13" value="&lt;font style=&quot;font-size: 17px;&quot;&gt;&lt;b&gt;TRIMESTER 1 (Sept-Jan)&lt;/b&gt;&lt;/font&gt;" style="rounded=1;whiteSpace=wrap;html=1;fillColor=#e1d5e7;strokeColor=#9673a6;strokeWidth=2;" parent="1_NoqtApiibmHGhhlHiK-1" vertex="1">
                    <mxGeometry x="202" y="1190" width="440" height="40" as="geometry"/>
                </mxCell>
                <mxCell id="BOfAsEiiRg0iwX8GVrMe-14" value="&lt;b style=&quot;border-color: var(--border-color); font-size: 17px;&quot;&gt;TRIMESTER 2 (Jan-May)&lt;/b&gt;" style="rounded=1;whiteSpace=wrap;html=1;fillColor=#e1d5e7;strokeColor=#9673a6;strokeWidth=2;" parent="1_NoqtApiibmHGhhlHiK-1" vertex="1">
                    <mxGeometry x="682" y="1190" width="440" height="40" as="geometry"/>
                </mxCell>
                <mxCell id="BOfAsEiiRg0iwX8GVrMe-15" value="&lt;b style=&quot;border-color: var(--border-color); font-size: 17px;&quot;&gt;TRIMESTER 3 (May-Sept)&lt;/b&gt;" style="rounded=1;whiteSpace=wrap;html=1;fillColor=#e1d5e7;strokeColor=#9673a6;strokeWidth=2;" parent="1_NoqtApiibmHGhhlHiK-1" vertex="1">
                    <mxGeometry x="1162" y="1190" width="440" height="40" as="geometry"/>
                </mxCell>
                <mxCell id="BOfAsEiiRg0iwX8GVrMe-16" value="&lt;font style=&quot;font-size: 17px;&quot;&gt;&lt;b&gt;TRIMESTER 1 (Sept-Jan)&lt;/b&gt;&lt;/font&gt;" style="rounded=1;whiteSpace=wrap;html=1;fillColor=#fff2cc;strokeColor=#d6b656;strokeWidth=2;" parent="1_NoqtApiibmHGhhlHiK-1" vertex="1">
                    <mxGeometry x="202" y="1380" width="440" height="40" as="geometry"/>
                </mxCell>
                <mxCell id="BOfAsEiiRg0iwX8GVrMe-17" value="&lt;b style=&quot;border-color: var(--border-color); font-size: 17px;&quot;&gt;TRIMESTER 2 (Jan-May)&lt;/b&gt;" style="rounded=1;whiteSpace=wrap;html=1;fillColor=#fff2cc;strokeColor=#d6b656;strokeWidth=2;" parent="1_NoqtApiibmHGhhlHiK-1" vertex="1">
                    <mxGeometry x="682" y="1380" width="440" height="40" as="geometry"/>
                </mxCell>
                <mxCell id="BOfAsEiiRg0iwX8GVrMe-18" value="&lt;b style=&quot;border-color: var(--border-color); font-size: 17px;&quot;&gt;TRIMESTER 3 (May-Sept)&lt;/b&gt;" style="rounded=1;whiteSpace=wrap;html=1;fillColor=#fff2cc;strokeColor=#d6b656;strokeWidth=2;" parent="1_NoqtApiibmHGhhlHiK-1" vertex="1">
                    <mxGeometry x="1162" y="1380" width="440" height="40" as="geometry"/>
                </mxCell>
                <mxCell id="BOfAsEiiRg0iwX8GVrMe-19" value="&lt;b style=&quot;font-size: 22px;&quot;&gt;Level 4&lt;br&gt;(Year 1)&lt;/b&gt;" style="text;html=1;align=center;verticalAlign=middle;whiteSpace=wrap;rounded=0;" parent="1_NoqtApiibmHGhhlHiK-1" vertex="1">
                    <mxGeometry x="62" y="1035" width="110" height="60" as="geometry"/>
                </mxCell>
                <mxCell id="BOfAsEiiRg0iwX8GVrMe-20" value="&lt;b style=&quot;font-size: 22px;&quot;&gt;Level 5&lt;br&gt;(Year 2)&lt;/b&gt;" style="text;html=1;strokeColor=none;fillColor=none;align=center;verticalAlign=middle;whiteSpace=wrap;rounded=0;" parent="1_NoqtApiibmHGhhlHiK-1" vertex="1">
                    <mxGeometry x="72" y="1225" width="110" height="60" as="geometry"/>
                </mxCell>
                <mxCell id="BOfAsEiiRg0iwX8GVrMe-21" value="&lt;b style=&quot;font-size: 22px;&quot;&gt;Level 6&lt;br&gt;(Year 3)&lt;/b&gt;" style="text;html=1;strokeColor=none;fillColor=none;align=center;verticalAlign=middle;whiteSpace=wrap;rounded=0;" parent="1_NoqtApiibmHGhhlHiK-1" vertex="1">
                    <mxGeometry x="72" y="1415" width="110" height="60" as="geometry"/>
                </mxCell>
                <mxCell id="BOfAsEiiRg0iwX8GVrMe-22" value="&lt;font style=&quot;font-size: 16px;&quot;&gt;COM617&lt;br style=&quot;border-color: var(--border-color);&quot;&gt;&amp;nbsp;Industrial Consulting Project&lt;br&gt;&lt;/font&gt;" style="rounded=1;whiteSpace=wrap;html=1;fillColor=#fff2cc;strokeColor=#000000;strokeWidth=2;" parent="1_NoqtApiibmHGhhlHiK-1" vertex="1">
                    <mxGeometry x="682" y="1435" width="210" height="80" as="geometry"/>
                </mxCell>
                <mxCell id="BOfAsEiiRg0iwX8GVrMe-23" value="&lt;span style=&quot;font-size: 16px;&quot;&gt;EPA PORTFOLIO&lt;br&gt;&lt;b&gt;NEW MODULE&amp;nbsp;&lt;/b&gt;&lt;/span&gt;" style="rounded=1;whiteSpace=wrap;html=1;fillColor=#fff2cc;strokeColor=#FF0000;strokeWidth=2;" parent="1_NoqtApiibmHGhhlHiK-1" vertex="1">
                    <mxGeometry x="912" y="1435" width="210" height="80" as="geometry"/>
                </mxCell>
                <mxCell id="BOfAsEiiRg0iwX8GVrMe-24" value="&lt;font style=&quot;font-size: 16px;&quot;&gt;COM532&lt;br style=&quot;border-color: var(--border-color);&quot;&gt;Work Based IT Project Management&lt;span style=&quot;font-size: 16px&quot;&gt;&lt;br&gt;&lt;/span&gt;&lt;/font&gt;" style="rounded=1;whiteSpace=wrap;html=1;fillColor=#e1d5e7;strokeColor=#030303;strokeWidth=2;" parent="1_NoqtApiibmHGhhlHiK-1" vertex="1">
                    <mxGeometry x="1162" y="1240" width="210" height="80" as="geometry"/>
                </mxCell>
                <mxCell id="BOfAsEiiRg0iwX8GVrMe-25" value="&lt;font style=&quot;font-size: 16px;&quot;&gt;COM530&lt;br style=&quot;border-color: var(--border-color);&quot;&gt;Work Based Business Organisation&lt;/font&gt;" style="rounded=1;whiteSpace=wrap;html=1;fillColor=#e1d5e7;strokeColor=#030303;strokeWidth=2;" parent="1_NoqtApiibmHGhhlHiK-1" vertex="1">
                    <mxGeometry x="1392" y="1240" width="210" height="80" as="geometry"/>
                </mxCell>
                <mxCell id="BOfAsEiiRg0iwX8GVrMe-26" value="&lt;font style=&quot;font-size: 16px;&quot;&gt;COM628 (Zero Credit)&lt;br&gt;Digital Technology Solutions Gateway&lt;/font&gt;" style="rounded=1;whiteSpace=wrap;html=1;fillColor=#fff2cc;strokeColor=#d6b656;strokeWidth=2;" parent="1_NoqtApiibmHGhhlHiK-1" vertex="1">
                    <mxGeometry x="1162" y="1435" width="440" height="80" as="geometry"/>
                </mxCell>
                <mxCell id="BOfAsEiiRg0iwX8GVrMe-27" value="" style="rounded=1;whiteSpace=wrap;html=1;strokeWidth=2;" parent="1_NoqtApiibmHGhhlHiK-1" vertex="1">
                    <mxGeometry x="42" y="1560" width="1580" height="170" as="geometry"/>
                </mxCell>
                <mxCell id="BOfAsEiiRg0iwX8GVrMe-28" value="&lt;font style=&quot;font-size: 16px;&quot;&gt;COM627 (40 Credit)&lt;br&gt;Digital &amp;amp; Technology Solutions EPA&lt;br&gt;&lt;/font&gt;" style="rounded=1;whiteSpace=wrap;html=1;fillColor=#60a917;strokeColor=#2D7600;strokeWidth=2;fontColor=#ffffff;" parent="1_NoqtApiibmHGhhlHiK-1" vertex="1">
                    <mxGeometry x="202" y="1630" width="440" height="80" as="geometry"/>
                </mxCell>
                <mxCell id="BOfAsEiiRg0iwX8GVrMe-29" value="&lt;font style=&quot;font-size: 17px;&quot;&gt;&lt;b&gt;SEPT - JAN&lt;/b&gt;&lt;/font&gt;" style="rounded=1;whiteSpace=wrap;html=1;fillColor=#60a917;strokeColor=#2D7600;strokeWidth=2;fontColor=#ffffff;" parent="1_NoqtApiibmHGhhlHiK-1" vertex="1">
                    <mxGeometry x="202" y="1580" width="440" height="40" as="geometry"/>
                </mxCell>
                <mxCell id="BOfAsEiiRg0iwX8GVrMe-30" value="&lt;b style=&quot;font-size: 22px;&quot;&gt;EPA&lt;br&gt;&lt;/b&gt;" style="text;html=1;strokeColor=none;fillColor=none;align=center;verticalAlign=middle;whiteSpace=wrap;rounded=0;" parent="1_NoqtApiibmHGhhlHiK-1" vertex="1">
                    <mxGeometry x="72" y="1615" width="110" height="60" as="geometry"/>
                </mxCell>
                <mxCell id="BOfAsEiiRg0iwX8GVrMe-31" value="&lt;font style=&quot;font-size: 36px;&quot;&gt;&lt;b&gt;BDATS Software Engineer - New Standard 2023 Version 1.2 - Revalidation 2025&amp;nbsp;&lt;/b&gt;&lt;/font&gt;" style="text;html=1;align=center;verticalAlign=middle;resizable=0;points=[];autosize=1;strokeColor=none;fillColor=none;" parent="1_NoqtApiibmHGhhlHiK-1" vertex="1">
                    <mxGeometry x="42" y="890" width="1380" height="60" as="geometry"/>
                </mxCell>
                <mxCell id="BOfAsEiiRg0iwX8GVrMe-32" value="&lt;font&gt;&lt;span style=&quot;font-size: 16px&quot;&gt;COM528&lt;br&gt;&amp;nbsp;Object Orientated&lt;br&gt;&lt;/span&gt;&lt;/font&gt;" style="rounded=1;whiteSpace=wrap;html=1;fillColor=#e1d5e7;strokeColor=#9673a6;strokeWidth=2;" parent="1_NoqtApiibmHGhhlHiK-1" vertex="1">
                    <mxGeometry x="202" y="1240" width="208" height="80" as="geometry"/>
                </mxCell>
                <mxCell id="BOfAsEiiRg0iwX8GVrMe-33" value="&lt;span style=&quot;font-size: 16px;&quot;&gt;COM619&lt;br&gt;Dev Ops&lt;/span&gt;" style="rounded=1;whiteSpace=wrap;html=1;fillColor=#fff2cc;strokeColor=#d6b656;strokeWidth=2;" parent="1_NoqtApiibmHGhhlHiK-1" vertex="1">
                    <mxGeometry x="430" y="1430" width="212" height="80" as="geometry"/>
                </mxCell>
                <mxCell id="BOfAsEiiRg0iwX8GVrMe-34" value="&lt;font style=&quot;font-size: 16px;&quot;&gt;COM422&lt;br&gt;Software Testing &amp;amp; Reliability Engineering&lt;span style=&quot;font-size: 16px&quot;&gt;&lt;br&gt;&lt;/span&gt;&lt;/font&gt;" style="rounded=1;whiteSpace=wrap;html=1;fillColor=#dae8fc;strokeColor=#6c8ebf;strokeWidth=2;" parent="1_NoqtApiibmHGhhlHiK-1" vertex="1">
                    <mxGeometry x="682" y="1050" width="208" height="80" as="geometry"/>
                </mxCell>
                <mxCell id="BOfAsEiiRg0iwX8GVrMe-35" value="&lt;font style=&quot;font-size: 16px;&quot;&gt;COM518&lt;br&gt;Web Application Dev&lt;br&gt;&lt;span style=&quot;font-size: 16px&quot;&gt;&lt;b&gt;Replaced MAD&lt;/b&gt;&lt;/span&gt;&lt;/font&gt;" style="rounded=1;whiteSpace=wrap;html=1;fillColor=#e1d5e7;strokeColor=#9673a6;strokeWidth=2;" parent="1_NoqtApiibmHGhhlHiK-1" vertex="1">
                    <mxGeometry x="682" y="1240" width="208" height="80" as="geometry"/>
                </mxCell>
                <mxCell id="BOfAsEiiRg0iwX8GVrMe-36" value="&lt;span style=&quot;font-size: 16px;&quot;&gt;Portfolio&lt;br&gt;&lt;/span&gt;&lt;b style=&quot;font-size: 16px;&quot;&gt;NEW MODULE&lt;/b&gt;&lt;span style=&quot;font-size: 16px;&quot;&gt;&lt;/span&gt;" style="rounded=1;whiteSpace=wrap;html=1;fillColor=#e1d5e7;strokeColor=#FF0000;strokeWidth=2;" parent="1_NoqtApiibmHGhhlHiK-1" vertex="1">
                    <mxGeometry x="910" y="1240" width="212" height="80" as="geometry"/>
                </mxCell>
            </root>
        </mxGraphModel>
    </diagram>
    <diagram name="BDATS_NETWORK" id="daNHZ3TRiOjiiwbFkDUF">
        <mxGraphModel dx="1996" dy="1055" grid="1" gridSize="10" guides="1" tooltips="1" connect="1" arrows="1" fold="1" page="1" pageScale="1" pageWidth="827" pageHeight="1169" math="0" shadow="0">
            <root>
                <mxCell id="sV7EwwiW8VQXavG21FDw-0"/>
                <mxCell id="sV7EwwiW8VQXavG21FDw-1" parent="sV7EwwiW8VQXavG21FDw-0"/>
                <mxCell id="sV7EwwiW8VQXavG21FDw-2" value="" style="rounded=1;whiteSpace=wrap;html=1;strokeWidth=2;" parent="sV7EwwiW8VQXavG21FDw-1" vertex="1">
                    <mxGeometry x="42" y="470" width="1580" height="170" as="geometry"/>
                </mxCell>
                <mxCell id="sV7EwwiW8VQXavG21FDw-3" value="" style="rounded=1;whiteSpace=wrap;html=1;strokeWidth=2;" parent="sV7EwwiW8VQXavG21FDw-1" vertex="1">
                    <mxGeometry x="42" y="280" width="1580" height="170" as="geometry"/>
                </mxCell>
                <mxCell id="sV7EwwiW8VQXavG21FDw-4" value="" style="rounded=1;whiteSpace=wrap;html=1;strokeWidth=2;" parent="sV7EwwiW8VQXavG21FDw-1" vertex="1">
                    <mxGeometry x="42" y="90" width="1580" height="170" as="geometry"/>
                </mxCell>
                <mxCell id="sV7EwwiW8VQXavG21FDw-5" value="&lt;font&gt;&lt;span style=&quot;font-size: 16px&quot;&gt;COM411&lt;br&gt;Problem Solving through Programming)&lt;/span&gt;&lt;/font&gt;" style="rounded=1;whiteSpace=wrap;html=1;fillColor=#dae8fc;strokeColor=#6c8ebf;strokeWidth=2;" parent="sV7EwwiW8VQXavG21FDw-1" vertex="1">
                    <mxGeometry x="202" y="160" width="210" height="80" as="geometry"/>
                </mxCell>
                <mxCell id="sV7EwwiW8VQXavG21FDw-6" value="&lt;span style=&quot;font-size: 16px&quot;&gt;COM412&lt;br&gt;Introduction to Networks&lt;br&gt;&amp;amp; Security&lt;/span&gt;" style="rounded=1;whiteSpace=wrap;html=1;fillColor=#dae8fc;strokeColor=#6c8ebf;strokeWidth=2;" parent="sV7EwwiW8VQXavG21FDw-1" vertex="1">
                    <mxGeometry x="432" y="160" width="210" height="80" as="geometry"/>
                </mxCell>
                <mxCell id="sV7EwwiW8VQXavG21FDw-7" value="&lt;font style=&quot;font-size: 17px;&quot;&gt;&lt;b&gt;SEMESTER 1 (Sept-Jan)&lt;/b&gt;&lt;/font&gt;" style="rounded=1;whiteSpace=wrap;html=1;fillColor=#dae8fc;strokeColor=#6c8ebf;strokeWidth=2;" parent="sV7EwwiW8VQXavG21FDw-1" vertex="1">
                    <mxGeometry x="202" y="110" width="440" height="40" as="geometry"/>
                </mxCell>
                <mxCell id="sV7EwwiW8VQXavG21FDw-8" value="&lt;font style=&quot;font-size: 16px;&quot;&gt;COM417&lt;br style=&quot;border-color: var(--border-color);&quot;&gt;Introduction to Databases&lt;/font&gt;" style="rounded=1;whiteSpace=wrap;html=1;fillColor=#dae8fc;strokeColor=#6c8ebf;strokeWidth=2;" parent="sV7EwwiW8VQXavG21FDw-1" vertex="1">
                    <mxGeometry x="910" y="160" width="212" height="80" as="geometry"/>
                </mxCell>
                <mxCell id="sV7EwwiW8VQXavG21FDw-9" value="&lt;b style=&quot;border-color: var(--border-color); font-size: 17px;&quot;&gt;SEMESTER 2 (Jan-May)&lt;/b&gt;" style="rounded=1;whiteSpace=wrap;html=1;fillColor=#dae8fc;strokeColor=#6c8ebf;strokeWidth=2;" parent="sV7EwwiW8VQXavG21FDw-1" vertex="1">
                    <mxGeometry x="682" y="110" width="440" height="40" as="geometry"/>
                </mxCell>
                <mxCell id="sV7EwwiW8VQXavG21FDw-10" value="&lt;font style=&quot;font-size: 16px;&quot;&gt;COM423&lt;br style=&quot;border-color: var(--border-color);&quot;&gt;Systems Analysis &amp;amp; Design&amp;nbsp;&lt;span style=&quot;font-size: 16px&quot;&gt;&lt;br&gt;&lt;/span&gt;&lt;/font&gt;" style="rounded=1;whiteSpace=wrap;html=1;fillColor=#dae8fc;strokeColor=#6c8ebf;strokeWidth=2;" parent="sV7EwwiW8VQXavG21FDw-1" vertex="1">
                    <mxGeometry x="1162" y="160" width="210" height="80" as="geometry"/>
                </mxCell>
                <mxCell id="sV7EwwiW8VQXavG21FDw-12" value="&lt;b style=&quot;border-color: var(--border-color); font-size: 17px;&quot;&gt;SEMESTER 3 (May-Sept)&lt;/b&gt;" style="rounded=1;whiteSpace=wrap;html=1;fillColor=#dae8fc;strokeColor=#6c8ebf;strokeWidth=2;" parent="sV7EwwiW8VQXavG21FDw-1" vertex="1">
                    <mxGeometry x="1162" y="110" width="440" height="40" as="geometry"/>
                </mxCell>
                <mxCell id="sV7EwwiW8VQXavG21FDw-15" value="&lt;font style=&quot;font-size: 17px;&quot;&gt;&lt;b&gt;SEMESTER 1 (Sept-Jan)&lt;/b&gt;&lt;/font&gt;" style="rounded=1;whiteSpace=wrap;html=1;fillColor=#e1d5e7;strokeColor=#9673a6;strokeWidth=2;" parent="sV7EwwiW8VQXavG21FDw-1" vertex="1">
                    <mxGeometry x="202" y="300" width="440" height="40" as="geometry"/>
                </mxCell>
                <mxCell id="sV7EwwiW8VQXavG21FDw-16" value="&lt;b style=&quot;border-color: var(--border-color); font-size: 17px;&quot;&gt;SEMESTER 2 (Jan-May)&lt;/b&gt;" style="rounded=1;whiteSpace=wrap;html=1;fillColor=#e1d5e7;strokeColor=#9673a6;strokeWidth=2;" parent="sV7EwwiW8VQXavG21FDw-1" vertex="1">
                    <mxGeometry x="682" y="300" width="440" height="40" as="geometry"/>
                </mxCell>
                <mxCell id="sV7EwwiW8VQXavG21FDw-17" value="&lt;b style=&quot;border-color: var(--border-color); font-size: 17px;&quot;&gt;SEMESTER 3 (May-Sept)&lt;/b&gt;" style="rounded=1;whiteSpace=wrap;html=1;fillColor=#e1d5e7;strokeColor=#9673a6;strokeWidth=2;" parent="sV7EwwiW8VQXavG21FDw-1" vertex="1">
                    <mxGeometry x="1162" y="300" width="440" height="40" as="geometry"/>
                </mxCell>
                <mxCell id="sV7EwwiW8VQXavG21FDw-18" value="&lt;font style=&quot;font-size: 17px;&quot;&gt;&lt;b&gt;SEMESTER 1 (Sept-Jan)&lt;/b&gt;&lt;/font&gt;" style="rounded=1;whiteSpace=wrap;html=1;fillColor=#fff2cc;strokeColor=#d6b656;strokeWidth=2;" parent="sV7EwwiW8VQXavG21FDw-1" vertex="1">
                    <mxGeometry x="202" y="490" width="440" height="40" as="geometry"/>
                </mxCell>
                <mxCell id="sV7EwwiW8VQXavG21FDw-19" value="&lt;b style=&quot;border-color: var(--border-color); font-size: 17px;&quot;&gt;SEMESTER 2 (Jan-May)&lt;/b&gt;" style="rounded=1;whiteSpace=wrap;html=1;fillColor=#fff2cc;strokeColor=#d6b656;strokeWidth=2;" parent="sV7EwwiW8VQXavG21FDw-1" vertex="1">
                    <mxGeometry x="682" y="490" width="440" height="40" as="geometry"/>
                </mxCell>
                <mxCell id="sV7EwwiW8VQXavG21FDw-20" value="&lt;b style=&quot;border-color: var(--border-color); font-size: 17px;&quot;&gt;SEMESTER 3 (May-Sept)&lt;/b&gt;" style="rounded=1;whiteSpace=wrap;html=1;fillColor=#fff2cc;strokeColor=#d6b656;strokeWidth=2;" parent="sV7EwwiW8VQXavG21FDw-1" vertex="1">
                    <mxGeometry x="1162" y="490" width="440" height="40" as="geometry"/>
                </mxCell>
                <mxCell id="sV7EwwiW8VQXavG21FDw-21" value="&lt;b style=&quot;font-size: 22px;&quot;&gt;Level 4&lt;br&gt;(Year 1)&lt;/b&gt;" style="text;html=1;align=center;verticalAlign=middle;whiteSpace=wrap;rounded=0;" parent="sV7EwwiW8VQXavG21FDw-1" vertex="1">
                    <mxGeometry x="62" y="145" width="110" height="60" as="geometry"/>
                </mxCell>
                <mxCell id="sV7EwwiW8VQXavG21FDw-22" value="&lt;b style=&quot;font-size: 22px;&quot;&gt;Level 5&lt;br&gt;(Year 2)&lt;/b&gt;" style="text;html=1;strokeColor=none;fillColor=none;align=center;verticalAlign=middle;whiteSpace=wrap;rounded=0;" parent="sV7EwwiW8VQXavG21FDw-1" vertex="1">
                    <mxGeometry x="72" y="335" width="110" height="60" as="geometry"/>
                </mxCell>
                <mxCell id="sV7EwwiW8VQXavG21FDw-23" value="&lt;b style=&quot;font-size: 22px;&quot;&gt;Level 6&lt;br&gt;(Year 3)&lt;/b&gt;" style="text;html=1;strokeColor=none;fillColor=none;align=center;verticalAlign=middle;whiteSpace=wrap;rounded=0;" parent="sV7EwwiW8VQXavG21FDw-1" vertex="1">
                    <mxGeometry x="72" y="525" width="110" height="60" as="geometry"/>
                </mxCell>
                <mxCell id="sV7EwwiW8VQXavG21FDw-24" value="&lt;font style=&quot;font-size: 16px;&quot;&gt;COM617&lt;br style=&quot;border-color: var(--border-color);&quot;&gt;&amp;nbsp;Industrial Consulting Project&lt;br&gt;&lt;/font&gt;" style="rounded=1;whiteSpace=wrap;html=1;fillColor=#fff2cc;strokeColor=#d6b656;strokeWidth=2;" parent="sV7EwwiW8VQXavG21FDw-1" vertex="1">
                    <mxGeometry x="682" y="545" width="210" height="80" as="geometry"/>
                </mxCell>
                <mxCell id="sV7EwwiW8VQXavG21FDw-26" value="&lt;font style=&quot;font-size: 16px;&quot;&gt;COM532&lt;br style=&quot;border-color: var(--border-color);&quot;&gt;Work Based IT Project Management&lt;span style=&quot;font-size: 16px&quot;&gt;&lt;br&gt;&lt;/span&gt;&lt;/font&gt;" style="rounded=1;whiteSpace=wrap;html=1;fillColor=#e1d5e7;strokeColor=#9673a6;strokeWidth=2;" parent="sV7EwwiW8VQXavG21FDw-1" vertex="1">
                    <mxGeometry x="1162" y="350" width="210" height="80" as="geometry"/>
                </mxCell>
                <mxCell id="sV7EwwiW8VQXavG21FDw-27" value="&lt;font style=&quot;font-size: 16px;&quot;&gt;COM530&lt;br style=&quot;border-color: var(--border-color);&quot;&gt;Work Based Business Organisation&lt;/font&gt;" style="rounded=1;whiteSpace=wrap;html=1;fillColor=#e1d5e7;strokeColor=#9673a6;strokeWidth=2;" parent="sV7EwwiW8VQXavG21FDw-1" vertex="1">
                    <mxGeometry x="1392" y="350" width="210" height="80" as="geometry"/>
                </mxCell>
                <mxCell id="sV7EwwiW8VQXavG21FDw-28" value="&lt;font style=&quot;font-size: 16px;&quot;&gt;COMXXX (Zero Credit)&lt;br&gt;Digital Technology Solutions Gateway&lt;/font&gt;" style="rounded=1;whiteSpace=wrap;html=1;fillColor=#fff2cc;strokeColor=#d6b656;strokeWidth=2;" parent="sV7EwwiW8VQXavG21FDw-1" vertex="1">
                    <mxGeometry x="1162" y="545" width="440" height="80" as="geometry"/>
                </mxCell>
                <mxCell id="sV7EwwiW8VQXavG21FDw-29" value="" style="rounded=1;whiteSpace=wrap;html=1;strokeWidth=2;" parent="sV7EwwiW8VQXavG21FDw-1" vertex="1">
                    <mxGeometry x="42" y="670" width="1580" height="170" as="geometry"/>
                </mxCell>
                <mxCell id="sV7EwwiW8VQXavG21FDw-30" value="&lt;font style=&quot;font-size: 16px;&quot;&gt;COMXXX (40 Credit)&lt;br&gt;Digital &amp;amp; Technology Solutions EPA&lt;br&gt;&lt;/font&gt;" style="rounded=1;whiteSpace=wrap;html=1;fillColor=#60a917;strokeColor=#2D7600;strokeWidth=2;fontColor=#ffffff;" parent="sV7EwwiW8VQXavG21FDw-1" vertex="1">
                    <mxGeometry x="202" y="740" width="440" height="80" as="geometry"/>
                </mxCell>
                <mxCell id="sV7EwwiW8VQXavG21FDw-31" value="&lt;font style=&quot;font-size: 17px;&quot;&gt;&lt;b&gt;Sept-Jan&lt;/b&gt;&lt;/font&gt;" style="rounded=1;whiteSpace=wrap;html=1;fillColor=#60a917;strokeColor=#2D7600;strokeWidth=2;fontColor=#ffffff;" parent="sV7EwwiW8VQXavG21FDw-1" vertex="1">
                    <mxGeometry x="202" y="690" width="440" height="40" as="geometry"/>
                </mxCell>
                <mxCell id="sV7EwwiW8VQXavG21FDw-32" value="&lt;b style=&quot;font-size: 22px;&quot;&gt;EPA&lt;br&gt;&lt;/b&gt;" style="text;html=1;strokeColor=none;fillColor=none;align=center;verticalAlign=middle;whiteSpace=wrap;rounded=0;" parent="sV7EwwiW8VQXavG21FDw-1" vertex="1">
                    <mxGeometry x="72" y="725" width="110" height="60" as="geometry"/>
                </mxCell>
                <mxCell id="sV7EwwiW8VQXavG21FDw-33" value="&lt;font style=&quot;font-size: 36px;&quot;&gt;&lt;b&gt;BDATS Network Engineer - New Standard 2023 Version 1.2&amp;nbsp;&lt;/b&gt;&lt;/font&gt;" style="text;html=1;align=center;verticalAlign=middle;resizable=0;points=[];autosize=1;strokeColor=none;fillColor=none;" parent="sV7EwwiW8VQXavG21FDw-1" vertex="1">
                    <mxGeometry x="47" y="10" width="1030" height="60" as="geometry"/>
                </mxCell>
                <mxCell id="9P6Vkf4_AZJ8KC9q507G-0" value="&lt;font&gt;&lt;span style=&quot;font-size: 16px&quot;&gt;COM515&lt;br&gt;&amp;nbsp;Enterprise Networks&lt;br&gt;&lt;/span&gt;&lt;/font&gt;" style="rounded=1;whiteSpace=wrap;html=1;fillColor=#e1d5e7;strokeColor=#9673a6;strokeWidth=2;" parent="sV7EwwiW8VQXavG21FDw-1" vertex="1">
                    <mxGeometry x="202" y="350" width="210" height="80" as="geometry"/>
                </mxCell>
                <mxCell id="9P6Vkf4_AZJ8KC9q507G-1" value="&lt;span style=&quot;font-size: 16px;&quot;&gt;COM511&lt;br&gt;Network Systems Automation&lt;/span&gt;" style="rounded=1;whiteSpace=wrap;html=1;fillColor=#e1d5e7;strokeColor=#9673a6;strokeWidth=2;" parent="sV7EwwiW8VQXavG21FDw-1" vertex="1">
                    <mxGeometry x="432" y="350" width="210" height="80" as="geometry"/>
                </mxCell>
                <mxCell id="9P6Vkf4_AZJ8KC9q507G-2" value="&lt;font&gt;&lt;span style=&quot;font-size: 16px&quot;&gt;COM611&lt;br&gt;Computer Systems&lt;br&gt;&lt;/span&gt;&lt;/font&gt;" style="rounded=1;whiteSpace=wrap;html=1;fillColor=#fff2cc;strokeColor=#d6b656;strokeWidth=2;" parent="sV7EwwiW8VQXavG21FDw-1" vertex="1">
                    <mxGeometry x="202" y="545" width="200" height="80" as="geometry"/>
                </mxCell>
                <mxCell id="9P6Vkf4_AZJ8KC9q507G-3" value="&lt;span style=&quot;font-size: 16px;&quot;&gt;COM615&lt;/span&gt;&lt;br style=&quot;font-size: 16px;&quot;&gt;&lt;span style=&quot;font-size: 16px;&quot;&gt;Network Management&lt;/span&gt;" style="rounded=1;whiteSpace=wrap;html=1;fillColor=#fff2cc;strokeColor=#d6b656;strokeWidth=2;" parent="sV7EwwiW8VQXavG21FDw-1" vertex="1">
                    <mxGeometry x="422" y="545" width="200" height="80" as="geometry"/>
                </mxCell>
                <mxCell id="x6s4asIGI9qGSP67Dqck-0" value="&lt;font style=&quot;font-size: 16px;&quot;&gt;COM512&lt;br&gt;Network Security&lt;span style=&quot;font-size: 16px&quot;&gt;&lt;br&gt;&lt;/span&gt;&lt;/font&gt;" style="rounded=1;whiteSpace=wrap;html=1;fillColor=#e1d5e7;strokeColor=#9673a6;strokeWidth=2;" parent="sV7EwwiW8VQXavG21FDw-1" vertex="1">
                    <mxGeometry x="682" y="350" width="208" height="80" as="geometry"/>
                </mxCell>
                <mxCell id="x6s4asIGI9qGSP67Dqck-1" value="&lt;font style=&quot;font-size: 16px;&quot;&gt;COM513&lt;br&gt;Network Engineering&lt;/font&gt;" style="rounded=1;whiteSpace=wrap;html=1;fillColor=#e1d5e7;strokeColor=#9673a6;strokeWidth=2;" parent="sV7EwwiW8VQXavG21FDw-1" vertex="1">
                    <mxGeometry x="910" y="350" width="212" height="80" as="geometry"/>
                </mxCell>
                <mxCell id="x6s4asIGI9qGSP67Dqck-3" value="&lt;font style=&quot;font-size: 16px;&quot;&gt;COM614&lt;br&gt;Cloud Computing&lt;/font&gt;" style="rounded=1;whiteSpace=wrap;html=1;fillColor=#fff2cc;strokeColor=#d6b656;strokeWidth=2;" parent="sV7EwwiW8VQXavG21FDw-1" vertex="1">
                    <mxGeometry x="912" y="545" width="210" height="80" as="geometry"/>
                </mxCell>
                <mxCell id="D2L15CgvEJABgol-MGmW-0" value="&lt;font style=&quot;font-size: 16px;&quot;&gt;COM414&lt;br&gt;Routing &amp;amp; Switching&lt;/font&gt;" style="rounded=1;whiteSpace=wrap;html=1;fillColor=#dae8fc;strokeColor=#6c8ebf;strokeWidth=2;" parent="sV7EwwiW8VQXavG21FDw-1" vertex="1">
                    <mxGeometry x="1392" y="160" width="210" height="80" as="geometry"/>
                </mxCell>
                <mxCell id="wCT_7qQcXiWVeh-hUX8u-0" value="&lt;font style=&quot;font-size: 16px;&quot;&gt;COM415&lt;br style=&quot;border-color: var(--border-color);&quot;&gt;Cyber Security Essentials&lt;span style=&quot;font-size: 16px&quot;&gt;&lt;br&gt;&lt;/span&gt;&lt;/font&gt;" style="rounded=1;whiteSpace=wrap;html=1;fillColor=#dae8fc;strokeColor=#6c8ebf;strokeWidth=2;" parent="sV7EwwiW8VQXavG21FDw-1" vertex="1">
                    <mxGeometry x="682" y="160" width="210" height="80" as="geometry"/>
                </mxCell>
            </root>
        </mxGraphModel>
    </diagram>
    <diagram name="BDATS_CYBER" id="LuzGWg6cHDbvfz2bFtNC">
        <mxGraphModel dx="2296" dy="967" grid="1" gridSize="10" guides="1" tooltips="1" connect="1" arrows="1" fold="1" page="1" pageScale="1" pageWidth="827" pageHeight="1169" math="0" shadow="0">
            <root>
                <mxCell id="keYp-FxEzvg4J2pBW55y-0"/>
                <mxCell id="keYp-FxEzvg4J2pBW55y-1" parent="keYp-FxEzvg4J2pBW55y-0"/>
                <mxCell id="keYp-FxEzvg4J2pBW55y-2" value="" style="rounded=1;whiteSpace=wrap;html=1;strokeWidth=2;" parent="keYp-FxEzvg4J2pBW55y-1" vertex="1">
                    <mxGeometry x="42" y="470" width="1580" height="170" as="geometry"/>
                </mxCell>
                <mxCell id="keYp-FxEzvg4J2pBW55y-3" value="" style="rounded=1;whiteSpace=wrap;html=1;strokeWidth=2;" parent="keYp-FxEzvg4J2pBW55y-1" vertex="1">
                    <mxGeometry x="42" y="280" width="1580" height="170" as="geometry"/>
                </mxCell>
                <mxCell id="keYp-FxEzvg4J2pBW55y-4" value="" style="rounded=1;whiteSpace=wrap;html=1;strokeWidth=2;" parent="keYp-FxEzvg4J2pBW55y-1" vertex="1">
                    <mxGeometry x="42" y="90" width="1580" height="170" as="geometry"/>
                </mxCell>
                <mxCell id="keYp-FxEzvg4J2pBW55y-5" value="&lt;font&gt;&lt;span style=&quot;font-size: 16px&quot;&gt;COM411&lt;br&gt;Problem Solving through Programming)&lt;/span&gt;&lt;/font&gt;" style="rounded=1;whiteSpace=wrap;html=1;fillColor=#dae8fc;strokeColor=#6c8ebf;strokeWidth=2;" parent="keYp-FxEzvg4J2pBW55y-1" vertex="1">
                    <mxGeometry x="202" y="160" width="210" height="80" as="geometry"/>
                </mxCell>
                <mxCell id="keYp-FxEzvg4J2pBW55y-6" value="&lt;span style=&quot;font-size: 16px&quot;&gt;COM412&lt;br&gt;Introduction to Networks&lt;br&gt;&amp;amp; Security&lt;/span&gt;" style="rounded=1;whiteSpace=wrap;html=1;fillColor=#dae8fc;strokeColor=#6c8ebf;strokeWidth=2;" parent="keYp-FxEzvg4J2pBW55y-1" vertex="1">
                    <mxGeometry x="432" y="160" width="210" height="80" as="geometry"/>
                </mxCell>
                <mxCell id="keYp-FxEzvg4J2pBW55y-7" value="&lt;font style=&quot;font-size: 17px;&quot;&gt;&lt;b&gt;SEMESTER 1 (Sept-Jan)&lt;/b&gt;&lt;/font&gt;" style="rounded=1;whiteSpace=wrap;html=1;fillColor=#dae8fc;strokeColor=#6c8ebf;strokeWidth=2;" parent="keYp-FxEzvg4J2pBW55y-1" vertex="1">
                    <mxGeometry x="202" y="110" width="440" height="40" as="geometry"/>
                </mxCell>
                <mxCell id="keYp-FxEzvg4J2pBW55y-8" value="&lt;font style=&quot;font-size: 16px;&quot;&gt;COM417&lt;br style=&quot;border-color: var(--border-color);&quot;&gt;Introduction to Databases&lt;/font&gt;" style="rounded=1;whiteSpace=wrap;html=1;fillColor=#dae8fc;strokeColor=#6c8ebf;strokeWidth=2;" parent="keYp-FxEzvg4J2pBW55y-1" vertex="1">
                    <mxGeometry x="910" y="160" width="212" height="80" as="geometry"/>
                </mxCell>
                <mxCell id="keYp-FxEzvg4J2pBW55y-9" value="&lt;b style=&quot;border-color: var(--border-color); font-size: 17px;&quot;&gt;SEMESTER 2 (Jan-May)&lt;/b&gt;" style="rounded=1;whiteSpace=wrap;html=1;fillColor=#dae8fc;strokeColor=#6c8ebf;strokeWidth=2;" parent="keYp-FxEzvg4J2pBW55y-1" vertex="1">
                    <mxGeometry x="682" y="110" width="440" height="40" as="geometry"/>
                </mxCell>
                <mxCell id="keYp-FxEzvg4J2pBW55y-10" value="&lt;font style=&quot;font-size: 16px;&quot;&gt;COM423&lt;br style=&quot;border-color: var(--border-color);&quot;&gt;Systems Analysis &amp;amp; Design&amp;nbsp;&lt;span style=&quot;font-size: 16px&quot;&gt;&lt;br&gt;&lt;/span&gt;&lt;/font&gt;" style="rounded=1;whiteSpace=wrap;html=1;fillColor=#dae8fc;strokeColor=#6c8ebf;strokeWidth=2;" parent="keYp-FxEzvg4J2pBW55y-1" vertex="1">
                    <mxGeometry x="1162" y="160" width="210" height="80" as="geometry"/>
                </mxCell>
                <mxCell id="keYp-FxEzvg4J2pBW55y-11" value="&lt;b style=&quot;border-color: var(--border-color); font-size: 17px;&quot;&gt;SEMESTER 3 (May-Sept)&lt;/b&gt;" style="rounded=1;whiteSpace=wrap;html=1;fillColor=#dae8fc;strokeColor=#6c8ebf;strokeWidth=2;" parent="keYp-FxEzvg4J2pBW55y-1" vertex="1">
                    <mxGeometry x="1162" y="110" width="440" height="40" as="geometry"/>
                </mxCell>
                <mxCell id="keYp-FxEzvg4J2pBW55y-12" value="&lt;font style=&quot;font-size: 17px;&quot;&gt;&lt;b&gt;SEMESTER 1 (Sept-Jan)&lt;/b&gt;&lt;/font&gt;" style="rounded=1;whiteSpace=wrap;html=1;fillColor=#e1d5e7;strokeColor=#9673a6;strokeWidth=2;" parent="keYp-FxEzvg4J2pBW55y-1" vertex="1">
                    <mxGeometry x="202" y="300" width="440" height="40" as="geometry"/>
                </mxCell>
                <mxCell id="keYp-FxEzvg4J2pBW55y-13" value="&lt;b style=&quot;border-color: var(--border-color); font-size: 17px;&quot;&gt;SEMESTER 2 (Jan-May)&lt;/b&gt;" style="rounded=1;whiteSpace=wrap;html=1;fillColor=#e1d5e7;strokeColor=#9673a6;strokeWidth=2;" parent="keYp-FxEzvg4J2pBW55y-1" vertex="1">
                    <mxGeometry x="682" y="300" width="440" height="40" as="geometry"/>
                </mxCell>
                <mxCell id="keYp-FxEzvg4J2pBW55y-14" value="&lt;b style=&quot;border-color: var(--border-color); font-size: 17px;&quot;&gt;SEMESTER 3 (May-Sept)&lt;/b&gt;" style="rounded=1;whiteSpace=wrap;html=1;fillColor=#e1d5e7;strokeColor=#9673a6;strokeWidth=2;" parent="keYp-FxEzvg4J2pBW55y-1" vertex="1">
                    <mxGeometry x="1162" y="300" width="440" height="40" as="geometry"/>
                </mxCell>
                <mxCell id="keYp-FxEzvg4J2pBW55y-15" value="&lt;font style=&quot;font-size: 17px;&quot;&gt;&lt;b&gt;SEMESTER 1 (Sept-Jan)&lt;/b&gt;&lt;/font&gt;" style="rounded=1;whiteSpace=wrap;html=1;fillColor=#fff2cc;strokeColor=#d6b656;strokeWidth=2;" parent="keYp-FxEzvg4J2pBW55y-1" vertex="1">
                    <mxGeometry x="202" y="490" width="440" height="40" as="geometry"/>
                </mxCell>
                <mxCell id="keYp-FxEzvg4J2pBW55y-16" value="&lt;b style=&quot;border-color: var(--border-color); font-size: 17px;&quot;&gt;SEMESTER 2 (Jan-May)&lt;/b&gt;" style="rounded=1;whiteSpace=wrap;html=1;fillColor=#fff2cc;strokeColor=#d6b656;strokeWidth=2;" parent="keYp-FxEzvg4J2pBW55y-1" vertex="1">
                    <mxGeometry x="682" y="490" width="440" height="40" as="geometry"/>
                </mxCell>
                <mxCell id="keYp-FxEzvg4J2pBW55y-17" value="&lt;b style=&quot;border-color: var(--border-color); font-size: 17px;&quot;&gt;SEMESTER 3 (May-Sept)&lt;/b&gt;" style="rounded=1;whiteSpace=wrap;html=1;fillColor=#fff2cc;strokeColor=#d6b656;strokeWidth=2;" parent="keYp-FxEzvg4J2pBW55y-1" vertex="1">
                    <mxGeometry x="1162" y="490" width="440" height="40" as="geometry"/>
                </mxCell>
                <mxCell id="keYp-FxEzvg4J2pBW55y-18" value="&lt;b style=&quot;font-size: 22px;&quot;&gt;Level 4&lt;br&gt;(Year 1)&lt;/b&gt;" style="text;html=1;align=center;verticalAlign=middle;whiteSpace=wrap;rounded=0;" parent="keYp-FxEzvg4J2pBW55y-1" vertex="1">
                    <mxGeometry x="62" y="145" width="110" height="60" as="geometry"/>
                </mxCell>
                <mxCell id="keYp-FxEzvg4J2pBW55y-19" value="&lt;b style=&quot;font-size: 22px;&quot;&gt;Level 5&lt;br&gt;(Year 2)&lt;/b&gt;" style="text;html=1;strokeColor=none;fillColor=none;align=center;verticalAlign=middle;whiteSpace=wrap;rounded=0;" parent="keYp-FxEzvg4J2pBW55y-1" vertex="1">
                    <mxGeometry x="72" y="335" width="110" height="60" as="geometry"/>
                </mxCell>
                <mxCell id="keYp-FxEzvg4J2pBW55y-20" value="&lt;b style=&quot;font-size: 22px;&quot;&gt;Level 6&lt;br&gt;(Year 3)&lt;/b&gt;" style="text;html=1;strokeColor=none;fillColor=none;align=center;verticalAlign=middle;whiteSpace=wrap;rounded=0;" parent="keYp-FxEzvg4J2pBW55y-1" vertex="1">
                    <mxGeometry x="72" y="525" width="110" height="60" as="geometry"/>
                </mxCell>
                <mxCell id="keYp-FxEzvg4J2pBW55y-21" value="&lt;font style=&quot;font-size: 16px;&quot;&gt;COM617&lt;br style=&quot;border-color: var(--border-color);&quot;&gt;&amp;nbsp;Industrial Consulting Project&lt;br&gt;&lt;/font&gt;" style="rounded=1;whiteSpace=wrap;html=1;fillColor=#fff2cc;strokeColor=#d6b656;strokeWidth=2;" parent="keYp-FxEzvg4J2pBW55y-1" vertex="1">
                    <mxGeometry x="682" y="545" width="210" height="80" as="geometry"/>
                </mxCell>
                <mxCell id="keYp-FxEzvg4J2pBW55y-22" value="&lt;font style=&quot;font-size: 16px;&quot;&gt;COM532&lt;br style=&quot;border-color: var(--border-color);&quot;&gt;Work Based IT Project Management&lt;span style=&quot;font-size: 16px&quot;&gt;&lt;br&gt;&lt;/span&gt;&lt;/font&gt;" style="rounded=1;whiteSpace=wrap;html=1;fillColor=#e1d5e7;strokeColor=#9673a6;strokeWidth=2;" parent="keYp-FxEzvg4J2pBW55y-1" vertex="1">
                    <mxGeometry x="1162" y="350" width="210" height="80" as="geometry"/>
                </mxCell>
                <mxCell id="keYp-FxEzvg4J2pBW55y-23" value="&lt;font style=&quot;font-size: 16px;&quot;&gt;COM530&lt;br style=&quot;border-color: var(--border-color);&quot;&gt;Work Based Business Organisation&lt;/font&gt;" style="rounded=1;whiteSpace=wrap;html=1;fillColor=#e1d5e7;strokeColor=#9673a6;strokeWidth=2;" parent="keYp-FxEzvg4J2pBW55y-1" vertex="1">
                    <mxGeometry x="1392" y="350" width="210" height="80" as="geometry"/>
                </mxCell>
                <mxCell id="keYp-FxEzvg4J2pBW55y-24" value="&lt;font style=&quot;font-size: 16px;&quot;&gt;COMXXX (Zero Credit)&lt;br&gt;Digital Technology Solutions Gateway&lt;/font&gt;" style="rounded=1;whiteSpace=wrap;html=1;fillColor=#fff2cc;strokeColor=#d6b656;strokeWidth=2;" parent="keYp-FxEzvg4J2pBW55y-1" vertex="1">
                    <mxGeometry x="1162" y="545" width="440" height="80" as="geometry"/>
                </mxCell>
                <mxCell id="keYp-FxEzvg4J2pBW55y-25" value="" style="rounded=1;whiteSpace=wrap;html=1;strokeWidth=2;" parent="keYp-FxEzvg4J2pBW55y-1" vertex="1">
                    <mxGeometry x="42" y="670" width="1580" height="170" as="geometry"/>
                </mxCell>
                <mxCell id="keYp-FxEzvg4J2pBW55y-26" value="&lt;font style=&quot;font-size: 16px;&quot;&gt;COMXXX (40 Credit)&lt;br&gt;Digital &amp;amp; Technology Solutions EPA&lt;br&gt;&lt;/font&gt;" style="rounded=1;whiteSpace=wrap;html=1;fillColor=#60a917;strokeColor=#2D7600;strokeWidth=2;fontColor=#ffffff;" parent="keYp-FxEzvg4J2pBW55y-1" vertex="1">
                    <mxGeometry x="202" y="740" width="440" height="80" as="geometry"/>
                </mxCell>
                <mxCell id="keYp-FxEzvg4J2pBW55y-27" value="&lt;font style=&quot;font-size: 17px;&quot;&gt;&lt;b&gt;Sept-Jan&lt;/b&gt;&lt;/font&gt;" style="rounded=1;whiteSpace=wrap;html=1;fillColor=#60a917;strokeColor=#2D7600;strokeWidth=2;fontColor=#ffffff;" parent="keYp-FxEzvg4J2pBW55y-1" vertex="1">
                    <mxGeometry x="202" y="690" width="440" height="40" as="geometry"/>
                </mxCell>
                <mxCell id="keYp-FxEzvg4J2pBW55y-28" value="&lt;b style=&quot;font-size: 22px;&quot;&gt;EPA&lt;br&gt;&lt;/b&gt;" style="text;html=1;strokeColor=none;fillColor=none;align=center;verticalAlign=middle;whiteSpace=wrap;rounded=0;" parent="keYp-FxEzvg4J2pBW55y-1" vertex="1">
                    <mxGeometry x="72" y="725" width="110" height="60" as="geometry"/>
                </mxCell>
                <mxCell id="keYp-FxEzvg4J2pBW55y-29" value="&lt;font style=&quot;font-size: 36px;&quot;&gt;&lt;b&gt;BDATS Cyber Sercurity - New Standard 2023 Version 1.2&amp;nbsp;&lt;/b&gt;&lt;/font&gt;" style="text;html=1;align=center;verticalAlign=middle;resizable=0;points=[];autosize=1;strokeColor=none;fillColor=none;" parent="keYp-FxEzvg4J2pBW55y-1" vertex="1">
                    <mxGeometry x="62" y="10" width="1000" height="60" as="geometry"/>
                </mxCell>
                <mxCell id="keYp-FxEzvg4J2pBW55y-30" value="&lt;font&gt;&lt;span style=&quot;font-size: 16px&quot;&gt;COM515&lt;br&gt;&amp;nbsp;Enterprise Networks&lt;br&gt;&lt;/span&gt;&lt;/font&gt;" style="rounded=1;whiteSpace=wrap;html=1;fillColor=#e1d5e7;strokeColor=#9673a6;strokeWidth=2;" parent="keYp-FxEzvg4J2pBW55y-1" vertex="1">
                    <mxGeometry x="200" y="350" width="210" height="80" as="geometry"/>
                </mxCell>
                <mxCell id="keYp-FxEzvg4J2pBW55y-31" value="&lt;span style=&quot;font-size: 16px;&quot;&gt;COM511&lt;br&gt;Network Systems Automation&lt;/span&gt;" style="rounded=1;whiteSpace=wrap;html=1;fillColor=#e1d5e7;strokeColor=#9673a6;strokeWidth=2;" parent="keYp-FxEzvg4J2pBW55y-1" vertex="1">
                    <mxGeometry x="432" y="350" width="210" height="80" as="geometry"/>
                </mxCell>
                <mxCell id="keYp-FxEzvg4J2pBW55y-32" value="&lt;font style=&quot;font-size: 16px;&quot;&gt;COM613&lt;br style=&quot;border-color: var(--border-color);&quot;&gt;&lt;span style=&quot;&quot;&gt;Cyber Ops&lt;/span&gt;&lt;span style=&quot;font-size: 16px&quot;&gt;&lt;br&gt;&lt;/span&gt;&lt;/font&gt;" style="rounded=1;whiteSpace=wrap;html=1;fillColor=#fff2cc;strokeColor=#d6b656;strokeWidth=2;" parent="keYp-FxEzvg4J2pBW55y-1" vertex="1">
                    <mxGeometry x="202" y="545" width="200" height="80" as="geometry"/>
                </mxCell>
                <mxCell id="keYp-FxEzvg4J2pBW55y-33" value="&lt;span style=&quot;font-size: 16px;&quot;&gt;COM615&lt;/span&gt;&lt;br style=&quot;font-size: 16px;&quot;&gt;&lt;span style=&quot;font-size: 16px;&quot;&gt;Network Management&lt;/span&gt;" style="rounded=1;whiteSpace=wrap;html=1;fillColor=#fff2cc;strokeColor=#d6b656;strokeWidth=2;" parent="keYp-FxEzvg4J2pBW55y-1" vertex="1">
                    <mxGeometry x="422" y="545" width="200" height="80" as="geometry"/>
                </mxCell>
                <mxCell id="keYp-FxEzvg4J2pBW55y-34" value="&lt;font style=&quot;font-size: 16px;&quot;&gt;COM512&lt;br&gt;Network Security&lt;span style=&quot;font-size: 16px&quot;&gt;&lt;br&gt;&lt;/span&gt;&lt;/font&gt;" style="rounded=1;whiteSpace=wrap;html=1;fillColor=#e1d5e7;strokeColor=#9673a6;strokeWidth=2;" parent="keYp-FxEzvg4J2pBW55y-1" vertex="1">
                    <mxGeometry x="682" y="350" width="208" height="80" as="geometry"/>
                </mxCell>
                <mxCell id="keYp-FxEzvg4J2pBW55y-35" value="&lt;font style=&quot;font-size: 16px;&quot;&gt;COM522&lt;br style=&quot;border-color: var(--border-color);&quot;&gt;Threat Intelligence Analysis&lt;/font&gt;" style="rounded=1;whiteSpace=wrap;html=1;fillColor=#e1d5e7;strokeColor=#9673a6;strokeWidth=2;" parent="keYp-FxEzvg4J2pBW55y-1" vertex="1">
                    <mxGeometry x="910" y="350" width="212" height="80" as="geometry"/>
                </mxCell>
                <mxCell id="keYp-FxEzvg4J2pBW55y-36" value="&lt;font style=&quot;font-size: 16px;&quot;&gt;COM614&lt;br&gt;Cloud Computing&lt;/font&gt;" style="rounded=1;whiteSpace=wrap;html=1;fillColor=#fff2cc;strokeColor=#d6b656;strokeWidth=2;" parent="keYp-FxEzvg4J2pBW55y-1" vertex="1">
                    <mxGeometry x="912" y="545" width="210" height="80" as="geometry"/>
                </mxCell>
                <mxCell id="keYp-FxEzvg4J2pBW55y-37" value="&lt;font style=&quot;font-size: 16px;&quot;&gt;COM414&lt;br&gt;Routing &amp;amp; Switching&lt;/font&gt;" style="rounded=1;whiteSpace=wrap;html=1;fillColor=#dae8fc;strokeColor=#6c8ebf;strokeWidth=2;" parent="keYp-FxEzvg4J2pBW55y-1" vertex="1">
                    <mxGeometry x="1392" y="160" width="210" height="80" as="geometry"/>
                </mxCell>
                <mxCell id="keYp-FxEzvg4J2pBW55y-38" value="&lt;font style=&quot;font-size: 16px;&quot;&gt;COM415&lt;br style=&quot;border-color: var(--border-color);&quot;&gt;Cyber Security Essentials&lt;span style=&quot;font-size: 16px&quot;&gt;&lt;br&gt;&lt;/span&gt;&lt;/font&gt;" style="rounded=1;whiteSpace=wrap;html=1;fillColor=#dae8fc;strokeColor=#6c8ebf;strokeWidth=2;" parent="keYp-FxEzvg4J2pBW55y-1" vertex="1">
                    <mxGeometry x="682" y="160" width="210" height="80" as="geometry"/>
                </mxCell>
            </root>
        </mxGraphModel>
    </diagram>
</mxfile>